<svg width="305" height="100" viewBox="0 0 305 100" fill="none" xmlns="http://www.w3.org/2000/svg">
<path d="M98.3591 31.0556H94.619V69.9583H98.3591V31.0556Z" fill="#B11917"/>
<path d="M29.2579 31.0556L9.92285 69.9583H29.2579V31.0556Z" fill="#E41313"/>
<path d="M29.2579 31.0556V69.9583H48.593L29.2579 31.0556Z" fill="#B11917"/>
<path d="M65.9959 31.0556H52.4434V58.3333H65.9821C67.7955 58.3916 69.602 58.0825 71.2944 57.4244C72.9867 56.7662 74.5303 55.7725 75.8336 54.5022C77.1368 53.2319 78.173 51.7109 78.8807 50.0297C79.5883 48.3484 79.953 46.5412 79.953 44.7153C79.953 42.8894 79.5883 41.0822 78.8807 39.4009C78.173 37.7196 77.1368 36.1987 75.8336 34.9284C74.5303 33.6581 72.9867 32.6643 71.2944 32.0062C69.602 31.348 67.7955 31.0389 65.9821 31.0972L65.9959 31.0556Z" fill="#E41313"/>
<path d="M62.1178 31.0556H52.4572V69.9583H62.1178V31.0556Z" fill="#B11917"/>
<path d="M125.919 47.5278L124.539 43.5833H119.019L117.722 47.5139H114.547L120.068 31.7083C120.326 31.6069 120.595 31.5324 120.868 31.4861C121.23 31.4004 121.601 31.363 121.972 31.375C122.165 31.3614 122.359 31.3614 122.552 31.375C122.775 31.4042 122.99 31.4748 123.187 31.5833C123.405 31.6948 123.602 31.8454 123.766 32.0278C123.974 32.2529 124.125 32.5242 124.208 32.8194L129.328 47.4722L125.919 47.5278ZM121.848 34.3889L119.681 41.2083H123.946L121.848 34.3889Z" fill="#69686D"/>
<path d="M141.997 36.2083C142.035 37.1161 141.86 38.0201 141.487 38.8472C141.177 39.5282 140.702 40.1203 140.107 40.5694C139.487 41.0242 138.783 41.35 138.037 41.5278C137.223 41.7244 136.389 41.8177 135.552 41.8056H134.407V47.5278H131.109V31.5833C131.812 31.5 132.489 31.4444 133.289 31.4028C134.09 31.3611 134.669 31.4028 135.304 31.4028C137.098 31.2533 138.893 31.6865 140.424 32.6389C140.949 33.0655 141.366 33.6117 141.639 34.2324C141.913 34.8531 142.036 35.5304 141.997 36.2083ZM138.671 36.375C138.706 35.9874 138.648 35.5972 138.501 35.2371C138.355 34.8769 138.124 34.5575 137.83 34.3056C137.181 33.8597 136.406 33.6401 135.621 33.6806C135.192 33.669 134.763 33.6923 134.338 33.75V39.5H135.125C136.049 39.5771 136.975 39.3635 137.774 38.8889C138.111 38.5714 138.368 38.1779 138.524 37.7408C138.68 37.3037 138.731 36.8356 138.671 36.375Z" fill="#69686D"/>
<path d="M152.859 38H158.848V31.5139C159.069 31.5139 159.29 31.4444 159.525 31.4306C159.695 31.4163 159.865 31.4163 160.035 31.4306C160.26 31.4101 160.487 31.4101 160.712 31.4306C160.952 31.4794 161.182 31.5736 161.388 31.7083C161.608 31.8461 161.785 32.0435 161.898 32.2778C162.056 32.5711 162.128 32.9034 162.105 33.2361V47.5278H158.848V40.5833H152.859V47.5278H149.588V31.5139L150.25 31.4306C150.42 31.4168 150.591 31.4168 150.761 31.4306C151.004 31.41 151.249 31.41 151.493 31.4306C151.733 31.4818 151.962 31.5759 152.169 31.7083C152.383 31.8527 152.559 32.0484 152.679 32.2778C152.83 32.5735 152.902 32.904 152.886 33.2361L152.859 38Z" fill="#69686D"/>
<path d="M179.232 39.4444C179.245 40.5501 179.11 41.6525 178.832 42.7222C178.584 43.7006 178.148 44.6207 177.549 45.4305C176.942 46.2012 176.161 46.8154 175.272 47.2222C174.227 47.6956 173.091 47.9281 171.945 47.9028C170.812 47.9317 169.687 47.6939 168.661 47.2083C167.782 46.7891 167.02 46.1596 166.439 45.375C165.855 44.5664 165.433 43.6512 165.197 42.6805C164.926 41.6235 164.792 40.5359 164.797 39.4444C164.793 38.3649 164.937 37.2901 165.224 36.25C165.5 35.2844 165.969 34.3861 166.605 33.6111C167.22 32.8454 167.998 32.2284 168.882 31.8055C169.913 31.3693 171.02 31.1446 172.139 31.1446C173.257 31.1446 174.365 31.3693 175.396 31.8055C176.259 32.211 177.016 32.8153 177.604 33.5694C178.188 34.354 178.615 35.2456 178.86 36.1944C179.128 37.256 179.254 38.3492 179.232 39.4444ZM175.879 39.4444C175.884 38.713 175.819 37.9829 175.686 37.2639C175.579 36.6296 175.365 36.0187 175.051 35.4583C174.764 34.9574 174.362 34.5334 173.878 34.2222C173.348 33.9065 172.74 33.7476 172.125 33.7639C171.509 33.7355 170.897 33.8786 170.356 34.1776C169.816 34.4765 169.368 34.9197 169.061 35.4583C168.732 36.014 168.507 36.6261 168.399 37.2639C168.261 37.9824 168.191 38.7126 168.192 39.4444C168.181 40.1893 168.241 40.9334 168.371 41.6667C168.481 42.324 168.7 42.958 169.02 43.5417C169.302 44.0655 169.71 44.5096 170.207 44.8333C170.756 45.1475 171.376 45.3126 172.008 45.3126C172.639 45.3126 173.26 45.1475 173.809 44.8333C174.306 44.5096 174.714 44.0655 174.995 43.5417C175.303 42.9538 175.517 42.3211 175.63 41.6667C175.769 40.9482 175.838 40.218 175.837 39.4861L175.879 39.4444Z" fill="#69686D"/>
<path d="M189.072 41.2639V38.8889H194.841V46.0694C194.642 46.2971 194.415 46.4979 194.165 46.6667C193.807 46.9278 193.417 47.1425 193.006 47.3056C192.462 47.5293 191.898 47.7014 191.322 47.8194C190.59 47.9651 189.846 48.0349 189.1 48.0278C187.954 48.0528 186.817 47.8352 185.76 47.3889C184.857 46.9973 184.058 46.3979 183.428 45.6389C182.786 44.863 182.316 43.9588 182.048 42.9861C181.754 41.8905 181.61 40.7597 181.62 39.625C181.604 38.5017 181.758 37.3825 182.075 36.3056C182.352 35.3365 182.822 34.4341 183.455 33.6528C184.112 32.8886 184.933 32.2853 185.857 31.8889C186.943 31.4469 188.108 31.2342 189.279 31.2639C189.912 31.2615 190.542 31.3361 191.156 31.4861C191.715 31.6227 192.257 31.8231 192.771 32.0833C193.188 32.2837 193.571 32.5511 193.903 32.875C194.152 33.112 194.304 33.4338 194.331 33.7778C194.308 34.1066 194.187 34.421 193.985 34.6806C193.754 35.0242 193.475 35.3329 193.157 35.5972C192.953 35.3991 192.736 35.2135 192.509 35.0417C191.953 34.608 191.314 34.2958 190.632 34.125C190.209 34.0127 189.772 33.9613 189.335 33.9722C188.593 33.9464 187.858 34.1088 187.195 34.4444C186.639 34.7455 186.165 35.1795 185.815 35.7083C185.475 36.2545 185.233 36.8561 185.098 37.4861C184.96 38.1672 184.891 38.8605 184.891 39.5556C184.887 40.2982 184.966 41.0389 185.125 41.7639C185.252 42.4204 185.5 43.0471 185.857 43.6111C186.203 44.154 186.677 44.6025 187.237 44.9167C187.901 45.2635 188.642 45.431 189.39 45.4028C189.737 45.4049 190.084 45.3723 190.425 45.3056C190.663 45.249 190.898 45.1794 191.129 45.0972C191.324 44.9998 191.508 44.8836 191.681 44.75V41.2639H189.072Z" fill="#69686D"/>
<path d="M206.282 45C206.562 44.9634 206.846 44.9906 207.113 45.0795C207.381 45.1685 207.625 45.3169 207.828 45.5139C208.099 45.8409 208.246 46.2545 208.242 46.6805V47.125C208.255 47.2589 208.255 47.3938 208.242 47.5278H197.946V31.4722H207.883C207.883 31.625 207.883 31.7639 207.883 31.9167V32.3611C207.911 32.8225 207.757 33.2764 207.455 33.625C206.989 33.9536 206.42 34.1016 205.854 34.0417H201.162V37.9861H206.213V40.5833H201.162V45.0139L206.282 45Z" fill="#69686D"/>
<path d="M210.353 43.8472C210.869 44.2362 211.413 44.5844 211.982 44.8889C212.7 45.2385 213.489 45.4145 214.287 45.4028C214.613 45.4032 214.937 45.3612 215.253 45.2778C215.559 45.2083 215.849 45.0811 216.108 44.9028C216.381 44.7234 216.603 44.475 216.75 44.1826C216.898 43.8901 216.967 43.5638 216.95 43.2361C216.962 42.8753 216.871 42.5187 216.688 42.2083C216.51 41.9184 216.275 41.668 215.998 41.4722C215.68 41.2598 215.337 41.0873 214.977 40.9583L213.804 40.5278L212.272 39.9444C211.77 39.7501 211.303 39.4731 210.892 39.125C210.456 38.7826 210.102 38.3459 209.857 37.8472C209.573 37.2301 209.436 36.5548 209.456 35.875C209.448 35.168 209.604 34.4688 209.912 33.8333C210.208 33.2532 210.633 32.7494 211.154 32.3611C211.699 31.9626 212.312 31.6662 212.962 31.4861C213.666 31.2806 214.395 31.1777 215.129 31.1806C215.618 31.183 216.107 31.2201 216.591 31.2917C217.005 31.375 217.406 31.4722 217.806 31.5833C218.112 31.6784 218.412 31.7945 218.703 31.9306C218.898 32.0258 219.087 32.1324 219.269 32.25C219.469 32.3494 219.638 32.5039 219.755 32.6955C219.872 32.8872 219.933 33.1083 219.931 33.3333C219.905 33.6076 219.821 33.873 219.683 34.1111C219.498 34.4686 219.26 34.7963 218.979 35.0833C218.503 34.7188 217.984 34.4155 217.433 34.1806C216.532 33.7616 215.523 33.6401 214.549 33.8333C214.259 33.8774 213.979 33.9714 213.721 34.1111C213.475 34.2479 213.266 34.4435 213.114 34.6806C212.947 34.9456 212.865 35.2559 212.879 35.5694C212.867 35.8784 212.948 36.1837 213.114 36.4444C213.283 36.7006 213.504 36.9182 213.762 37.0833C214.058 37.28 214.373 37.4474 214.701 37.5833L215.805 38.0139C216.329 38.1944 216.84 38.4028 217.35 38.625C217.846 38.8448 218.31 39.1297 218.731 39.4722C219.16 39.8326 219.512 40.2767 219.766 40.7778C220.056 41.3829 220.193 42.0508 220.166 42.7222C220.181 43.491 220.03 44.2538 219.724 44.9583C219.448 45.594 219.033 46.1588 218.51 46.6111C217.95 47.0731 217.302 47.4136 216.605 47.6111C215.822 47.8461 215.007 47.9585 214.19 47.9444C213.258 47.9734 212.326 47.8562 211.43 47.5972C210.895 47.4373 210.377 47.2232 209.884 46.9583C209.699 46.844 209.54 46.6928 209.415 46.5139C209.292 46.3392 209.224 46.1309 209.222 45.9167C209.247 45.5671 209.356 45.2288 209.539 44.9306C209.787 44.552 210.059 44.1901 210.353 43.8472Z" fill="#69686D"/>
<path d="M234.119 46.625C233.972 46.7573 233.815 46.8781 233.649 46.9861C233.374 47.1572 233.083 47.3014 232.78 47.4167C232.333 47.5871 231.871 47.7127 231.4 47.7917C230.817 47.8983 230.226 47.9494 229.633 47.9445C228.489 47.9743 227.351 47.7614 226.293 47.3195C225.396 46.9314 224.602 46.3367 223.975 45.5833C223.327 44.8172 222.855 43.9159 222.595 42.9445C222.296 41.859 222.148 40.7374 222.153 39.6111C222.15 38.4695 222.308 37.3332 222.622 36.2361C222.906 35.2656 223.375 34.3599 224.002 33.5695C224.635 32.815 225.427 32.2123 226.321 31.8056C227.354 31.3639 228.47 31.1508 229.592 31.1806C230.158 31.1664 230.723 31.2224 231.276 31.3472C231.745 31.4393 232.207 31.5694 232.656 31.7361C232.98 31.8647 233.29 32.0276 233.58 32.2222C233.776 32.3454 233.96 32.4848 234.132 32.6389C234.282 32.7635 234.408 32.914 234.505 33.0833C234.616 33.2567 234.669 33.461 234.657 33.6667C234.654 34.0164 234.532 34.3547 234.312 34.625C234.068 34.9372 233.805 35.234 233.525 35.5139C233.332 35.3195 233.111 35.125 232.876 34.9167C232.629 34.7167 232.361 34.5444 232.076 34.4028C231.761 34.2372 231.428 34.1112 231.082 34.0278C230.673 33.917 230.251 33.8609 229.826 33.8611C229.11 33.8335 228.399 34.0015 227.77 34.3472C227.24 34.6702 226.791 35.1123 226.459 35.6389C226.112 36.1917 225.869 36.8036 225.741 37.4444C225.599 38.1251 225.525 38.8184 225.521 39.5139C225.532 40.2388 225.62 40.9605 225.783 41.6667C225.921 42.3177 226.184 42.9356 226.556 43.4861C226.913 44.0127 227.385 44.4498 227.936 44.7639C228.583 45.0996 229.306 45.2622 230.033 45.2361C230.448 45.2363 230.862 45.1802 231.262 45.0695C232.112 44.7963 232.884 44.3198 233.511 43.6806L233.856 44.0972C233.981 44.2619 234.096 44.4335 234.201 44.6111C234.308 44.7763 234.405 44.9479 234.491 45.125C234.56 45.2787 234.602 45.4431 234.615 45.6111C234.615 45.7899 234.573 45.9661 234.491 46.125C234.383 46.303 234.258 46.4703 234.119 46.625Z" fill="#69686D"/>
<path d="M240.315 38H246.319V31.5139C246.539 31.5139 246.76 31.4444 246.995 31.4306C247.165 31.4163 247.336 31.4163 247.505 31.4306C247.73 31.4101 247.957 31.4101 248.182 31.4306C248.423 31.4794 248.652 31.5736 248.858 31.7083C249.078 31.8461 249.255 32.0435 249.369 32.2778C249.52 32.5735 249.591 32.9039 249.576 33.2361V47.5278H246.319V40.5833H240.315V47.5278H237.058V31.5139L237.707 31.4306C237.881 31.4168 238.057 31.4168 238.231 31.4306C238.47 31.41 238.71 31.41 238.949 31.4306C239.191 31.4766 239.42 31.5711 239.625 31.7083C239.847 31.848 240.028 32.0445 240.15 32.2778C240.29 32.5768 240.356 32.9056 240.343 33.2361L240.315 38Z" fill="#69686D"/>
<path d="M266.689 39.4444C266.69 40.5503 266.551 41.6518 266.275 42.7222C266.027 43.7006 265.591 44.6207 264.991 45.4306C264.388 46.1995 263.612 46.8135 262.728 47.2222C261.686 47.7025 260.548 47.9354 259.402 47.9028C258.268 47.9317 257.143 47.6939 256.117 47.2083C255.259 46.7877 254.512 46.1691 253.937 45.4028C253.353 44.5942 252.931 43.679 252.695 42.7083C252.429 41.6507 252.299 40.5631 252.308 39.4722C252.294 38.393 252.433 37.3172 252.722 36.2778C253.009 35.3169 253.478 34.4209 254.102 33.6389C254.72 32.8698 255.503 32.2524 256.393 31.8333C257.422 31.3967 258.527 31.1718 259.643 31.1718C260.76 31.1718 261.865 31.3967 262.893 31.8333C263.76 32.2343 264.517 32.8393 265.102 33.5972C265.696 34.3752 266.124 35.2691 266.357 36.2222C266.603 37.2778 266.714 38.3606 266.689 39.4444ZM263.321 39.4444C263.331 38.7135 263.271 37.9833 263.142 37.2639C263.031 36.6287 262.812 36.0177 262.493 35.4583C262.211 34.9621 261.813 34.5426 261.334 34.2361C260.803 33.9245 260.195 33.7704 259.581 33.7917C258.966 33.7571 258.353 33.8961 257.812 34.193C257.27 34.4899 256.822 34.9329 256.517 35.4722C256.188 36.0328 255.963 36.6495 255.855 37.2917C255.716 38.0101 255.647 38.7404 255.648 39.4722C255.648 40.2086 255.717 40.9434 255.855 41.6667C255.967 42.3191 256.186 42.9481 256.504 43.5278C256.79 44.0566 257.203 44.5053 257.704 44.8333C258.253 45.141 258.87 45.3026 259.498 45.3026C260.126 45.3026 260.744 45.141 261.293 44.8333C261.79 44.5044 262.198 44.0556 262.479 43.5278C262.787 42.9448 263.001 42.3167 263.114 41.6667C263.263 40.9402 263.337 40.2001 263.335 39.4583L263.321 39.4444Z" fill="#69686D"/>
<path d="M283.443 39.4444C283.455 40.5501 283.321 41.6525 283.043 42.7222C282.797 43.7016 282.361 44.6222 281.759 45.4306C281.156 46.1995 280.381 46.8135 279.496 47.2222C278.451 47.6956 277.315 47.9282 276.17 47.9028C275.032 47.9303 273.903 47.6926 272.871 47.2083C271.999 46.7854 271.242 46.1564 270.663 45.375C270.08 44.5664 269.658 43.6512 269.421 42.6806C269.151 41.6235 269.016 40.5359 269.021 39.4444C269.018 38.365 269.162 37.2901 269.449 36.25C269.73 35.2868 270.199 34.3897 270.829 33.6111C271.447 32.8421 272.23 32.2246 273.12 31.8056C274.149 31.3689 275.254 31.144 276.37 31.144C277.486 31.144 278.591 31.3689 279.62 31.8056C280.486 32.2065 281.244 32.8115 281.828 33.5694C282.412 34.354 282.839 35.2456 283.084 36.1944C283.348 37.2567 283.469 38.3498 283.443 39.4444ZM280.089 39.4444C280.094 38.7131 280.029 37.9829 279.896 37.2639C279.798 36.6276 279.582 36.0154 279.261 35.4583C278.975 34.9574 278.572 34.5334 278.088 34.2222C277.558 33.9065 276.951 33.7476 276.335 33.7639C275.714 33.7356 275.097 33.8816 274.554 34.1858C274.011 34.4899 273.562 34.9401 273.258 35.4861C272.934 36.0446 272.71 36.6556 272.595 37.2917C272.458 38.0102 272.388 38.7404 272.388 39.4722C272.388 40.2087 272.458 40.9434 272.595 41.6667C272.705 42.324 272.924 42.958 273.244 43.5417C273.527 44.0689 273.941 44.5138 274.445 44.8333C274.991 45.1476 275.61 45.3129 276.239 45.3129C276.868 45.3129 277.487 45.1476 278.033 44.8333C278.533 44.5134 278.942 44.0684 279.22 43.5417C279.527 42.9538 279.741 42.3211 279.855 41.6667C280.005 40.9497 280.079 40.2188 280.076 39.4861L280.089 39.4444Z" fill="#69686D"/>
<path d="M289.543 44.875H294.166C294.491 44.8625 294.814 44.9144 295.119 45.0278C295.345 45.0993 295.55 45.2285 295.712 45.4028C295.86 45.5579 295.965 45.7495 296.016 45.9583C296.071 46.1572 296.099 46.3629 296.098 46.5694V47.2222C296.112 47.3468 296.112 47.4726 296.098 47.5972H286.3V31.5139L286.948 31.4306C287.114 31.4168 287.28 31.4168 287.445 31.4306C287.684 31.41 287.924 31.41 288.163 31.4306C288.406 31.4854 288.639 31.5792 288.853 31.7083C289.073 31.8461 289.25 32.0435 289.364 32.2778C289.515 32.5735 289.586 32.9039 289.571 33.2361L289.543 44.875Z" fill="#69686D"/>
<path d="M125.919 69.8889L124.539 65.9583H119.019L117.722 69.8889H114.547L120.068 54.0833C120.328 53.9837 120.596 53.9048 120.868 53.8472C121.232 53.773 121.602 53.7404 121.972 53.75H122.552C122.772 53.7919 122.985 53.8619 123.187 53.9583C123.405 54.0698 123.602 54.2204 123.766 54.4028C123.976 54.6259 124.128 54.8979 124.208 55.1945L129.328 69.8472L125.919 69.8889ZM121.848 56.7361L119.681 63.5695H123.946L121.848 56.7361Z" fill="#69686D"/>
<path d="M143.626 69.8889H140.866L134.076 59.3472V69.8889H130.957V53.8889L131.605 53.7917C131.877 53.7775 132.148 53.7775 132.42 53.7917C132.832 53.7691 133.242 53.8603 133.607 54.0556C133.913 54.2669 134.172 54.5415 134.366 54.8611L140.507 64.9445V53.8611L141.128 53.7778H141.57C141.808 53.7498 142.049 53.7498 142.287 53.7778C142.525 53.823 142.751 53.9176 142.95 54.0556C143.149 54.2031 143.314 54.3927 143.433 54.6111C143.572 54.9106 143.638 55.2391 143.626 55.5695V69.8889Z" fill="#69686D"/>
<path d="M150.333 56.5278H145.365C145.323 56.3685 145.295 56.2059 145.282 56.0417V55.5556C145.28 55.1157 145.449 54.6923 145.751 54.375C145.957 54.1819 146.201 54.035 146.468 53.944C146.734 53.8531 147.017 53.8201 147.297 53.8472H158.476C158.503 54.1939 158.503 54.5422 158.476 54.8889C158.478 55.2995 158.336 55.6978 158.076 56.0139C157.873 56.2108 157.629 56.3593 157.361 56.4483C157.093 56.5372 156.809 56.5644 156.53 56.5278H153.549V69.9028H150.264L150.333 56.5278Z" fill="#69686D"/>
<path d="M174.802 69.9861H172.042L169.351 61.6528L166.784 69.9861H164.024L158.848 54.0417C159.115 53.9354 159.393 53.8609 159.676 53.8194C159.977 53.7596 160.281 53.7271 160.587 53.7222C161.08 53.6923 161.567 53.8346 161.967 54.125C162.312 54.4317 162.561 54.832 162.685 55.2778L165.776 65.5278L168.109 58.0139L166.991 53.9444C167.295 53.875 167.571 53.8333 167.833 53.7917C168.076 53.7704 168.321 53.7704 168.564 53.7917C169.059 53.7585 169.549 53.9065 169.944 54.2083C170.277 54.5232 170.512 54.9284 170.621 55.375L173.381 65.3333L176.141 55.6111C176.26 55.1346 176.503 54.6984 176.845 54.3472C177.027 54.1704 177.244 54.0334 177.481 53.945C177.719 53.8566 177.972 53.8185 178.225 53.8333C178.544 53.8219 178.863 53.8452 179.177 53.9028L179.922 54.0972L174.802 69.9861Z" fill="#69686D"/>
<path d="M190.08 67.3472C190.359 67.3145 190.642 67.3436 190.909 67.4323C191.176 67.5211 191.421 67.6674 191.626 67.8611C191.891 68.1969 192.037 68.6126 192.04 69.0417V69.4444C192.058 69.5734 192.058 69.7043 192.04 69.8333H181.758V53.8333H191.681C191.695 53.9811 191.695 54.13 191.681 54.2778V54.7222C191.702 54.9492 191.675 55.1782 191.601 55.3939C191.528 55.6095 191.409 55.8067 191.253 55.9722C190.79 56.3081 190.219 56.4568 189.652 56.3889H184.932V60.3472H189.983V62.9028H184.932V67.3333L190.08 67.3472Z" fill="#69686D"/>
<path d="M205.068 58.4444C205.082 59.0422 204.998 59.6382 204.819 60.2083C204.677 60.7078 204.448 61.178 204.143 61.5972C203.875 61.9671 203.548 62.2908 203.177 62.5556C202.825 62.8006 202.445 63.0011 202.045 63.1528L205.979 69.7639C205.671 69.8945 205.352 69.9968 205.026 70.0694C204.718 70.1368 204.403 70.1694 204.088 70.1667C203.57 70.1915 203.056 70.0609 202.611 69.7917C202.15 69.4693 201.771 69.0408 201.507 68.5417L198.747 63.875H197.367V69.9167H194.082V53.9444C194.786 53.8611 195.462 53.8056 196.263 53.7639C197.063 53.7222 197.643 53.7639 198.291 53.7639C200.058 53.6286 201.824 54.0353 203.356 54.9306C203.906 55.3305 204.349 55.8601 204.647 56.4727C204.946 57.0854 205.09 57.7625 205.068 58.4444ZM201.645 58.75C201.687 58.3607 201.638 57.9668 201.502 57.6001C201.365 57.2334 201.145 56.9042 200.858 56.6389C200.234 56.1983 199.48 55.9829 198.719 56.0278H197.974H197.463V61.5833H198.581C199.391 61.6394 200.192 61.392 200.831 60.8889C201.116 60.6156 201.337 60.2819 201.478 59.9119C201.619 59.5419 201.676 59.145 201.645 58.75Z" fill="#69686D"/>
<path d="M218.813 58.5556C218.841 59.464 218.662 60.3667 218.289 61.1944C217.975 61.8772 217.502 62.473 216.909 62.9306C216.288 63.3727 215.591 63.6931 214.852 63.875C214.034 64.0694 213.196 64.1672 212.354 64.1667H211.154V69.8889H207.869V53.9444C208.587 53.8611 209.249 53.8055 210.064 53.7639C210.878 53.7222 211.444 53.7639 212.078 53.7639C213.866 53.62 215.653 54.0478 217.185 54.9861C217.716 55.4107 218.14 55.9551 218.422 56.5752C218.705 57.1953 218.839 57.8737 218.813 58.5556ZM215.474 58.7361C215.51 58.3463 215.453 57.9533 215.306 57.5906C215.16 57.2278 214.928 56.9061 214.632 56.6528C213.979 56.2173 213.205 56.0032 212.424 56.0417C211.996 56.0071 211.567 56.0071 211.14 56.0417V61.7917H211.927C212.859 61.8479 213.785 61.61 214.576 61.1111C214.892 60.8072 215.136 60.4363 215.291 60.0255C215.446 59.6146 215.509 59.1742 215.474 58.7361Z" fill="#69686D"/>
<path d="M229.426 67.3472C229.703 67.3137 229.985 67.3425 230.249 67.4313C230.514 67.5202 230.756 67.6669 230.958 67.8611C231.233 68.1922 231.385 68.6099 231.386 69.0417V69.4444C231.404 69.5734 231.404 69.7043 231.386 69.8333H221.104V53.8333H231.027C231.035 53.9814 231.035 54.1297 231.027 54.2778V54.7222C231.045 54.949 231.016 55.1771 230.943 55.3921C230.869 55.6072 230.752 55.8047 230.599 55.9722C230.136 56.3068 229.565 56.4554 228.998 56.3889H224.32V60.3472H229.357V62.9028H224.32V67.3333L229.426 67.3472Z" fill="#69686D"/>
<path d="M246.112 69.8889H243.351L236.561 59.3472V69.8889H233.442V53.8889L234.091 53.7917C234.362 53.7775 234.634 53.7775 234.905 53.7917C235.317 53.7691 235.728 53.8603 236.092 54.0556C236.399 54.2669 236.658 54.5415 236.851 54.8611L242.993 64.9445V53.8611L243.614 53.7778H244.055C244.294 53.7498 244.534 53.7498 244.773 53.7778C245.01 53.823 245.236 53.9176 245.435 54.0556C245.646 54.1981 245.821 54.3884 245.946 54.6111C246.085 54.9106 246.151 55.2391 246.139 55.5695L246.112 69.8889Z" fill="#69686D"/>
</svg>