<svg width="221" height="66" viewBox="0 0 221 66" fill="none" xmlns="http://www.w3.org/2000/svg">
<path d="M42.5246 0.819305H82.7491C83.6706 0.819305 84.3755 1.57831 84.3755 2.44629V63.3435C84.3755 64.2653 83.6168 64.9705 82.7491 64.9705H2.30007C1.37852 64.9705 0.673584 64.2115 0.673584 63.3435V2.50014C0.673584 1.57831 1.43236 0.873154 2.30007 0.873154H42.5246V0.819305Z" fill="#0081C6"/>
<path d="M38.7838 3.53029C40.0309 0.710312 40.4103 0.222473 41.0608 0.222473C41.6568 0.222473 42.0906 0.656464 43.3377 3.31362C44.8559 6.56695 60.9561 41.8151 67.1903 54.7752C70.8765 62.3672 73.8584 63.723 76.0264 64.2647C77.5446 64.6987 79.1166 64.7525 80.1465 64.7525C80.7425 64.7525 81.1763 64.8609 81.1763 65.2404C81.1763 65.7282 80.2548 65.9455 79.1166 65.9455C77.5984 65.9455 70.1177 65.9455 63.0158 65.7827C61.0644 65.6744 59.9256 65.6744 59.9256 65.1859C59.9256 64.8602 60.2512 64.698 60.6305 64.5891C61.2265 64.4262 61.8776 63.6672 61.2265 62.2576L51.6861 41.2728C51.4695 40.9471 51.2523 40.7849 50.7646 40.7849H28.7545C28.2668 40.7849 27.9412 41.0561 27.7246 41.4901L21.5987 56.6189C20.6772 58.7337 20.1895 60.7947 20.1895 62.3127C20.1895 63.9935 22.3581 64.807 24.0929 64.807H25.1228C25.8277 64.807 26.1526 64.9698 26.1526 65.2949C26.1526 65.7827 25.556 66 24.6344 66C22.1947 66 17.7497 65.7288 16.6654 65.7288C15.5811 65.7288 9.78072 65.9455 4.95573 65.9455C3.60033 65.9455 3.00433 65.7827 3.00433 65.2404C3.00433 64.9147 3.43819 64.7525 3.92588 64.7525C4.63082 64.7525 6.09453 64.6442 6.90777 64.5897C11.6238 64.1019 13.6842 60.8479 15.5273 56.5644L38.7838 3.53029ZM49.463 37.6938C49.9507 37.6938 49.9507 37.4226 49.8969 37.097L40.1392 14.0506C39.6516 12.7492 39.1094 12.7492 38.6211 14.0506L29.5677 37.097C29.3511 37.531 29.5677 37.6938 29.8933 37.6938H49.463Z" fill="white"/>
<path d="M49.4451 44.8953L45.434 35.7847L48.7055 34.3014L52.65 43.4882L49.4451 44.8953Z" fill="#0081C6"/>
<path d="M5.98623 61.4453C5.17299 61.4453 5.01021 61.4453 4.84807 61.4453C4.68594 61.4453 4.57699 61.4998 4.57699 61.7165C4.57699 61.771 4.57699 61.8793 4.57699 61.9332C4.57699 61.9877 4.57699 62.0415 4.52252 62.0415C4.46805 62.0415 4.46805 61.987 4.46805 61.9332C4.46805 61.662 4.46805 61.2825 4.46805 61.1197C4.46805 60.9568 4.46805 59.6555 4.46805 59.5472C4.46805 59.4388 4.46805 59.3305 4.41357 59.3305C4.41357 59.276 4.41357 59.276 4.41357 59.2222C4.41357 59.1677 4.41357 59.1677 4.46805 59.1677C4.52252 59.1677 4.57635 59.2222 4.84743 59.2222C4.90191 59.2222 5.11851 59.2222 5.22682 59.2767C5.22682 59.2767 5.33512 59.2767 5.33512 59.3311C5.33512 59.3856 5.33512 59.3856 5.28065 59.3856C5.22618 59.3856 5.17235 59.3856 5.06404 59.4401C4.95574 59.4946 4.90126 59.5485 4.84743 59.8196C4.84743 59.928 4.84743 60.5786 4.84743 60.687C4.84743 60.687 4.84743 60.7415 4.90191 60.7415H6.25731C6.31178 60.7415 6.31179 60.7415 6.31179 60.687C6.31179 60.5786 6.31179 59.8196 6.31179 59.7106C6.31179 59.6017 6.31178 59.494 6.20348 59.4395C6.14901 59.385 6.14901 59.385 6.14901 59.3311C6.14901 59.3311 6.14901 59.2767 6.20348 59.2767C6.25795 59.2767 6.31178 59.2767 6.58287 59.3311C6.69117 59.3311 6.90842 59.3311 6.96225 59.3311C7.01608 59.3311 7.07056 59.3311 7.07056 59.3856C7.07056 59.4401 7.07056 59.4401 7.01608 59.4401C6.96161 59.4401 6.90778 59.4401 6.79947 59.4401C6.69117 59.4946 6.58287 59.5485 6.58287 59.7658C6.58287 59.8741 6.58287 60.5248 6.58287 60.6331C6.58287 60.6331 6.58287 60.6876 6.63734 60.6876H7.0712C7.23397 60.6876 7.72166 60.6876 7.88444 60.6876C8.26383 60.6876 8.3183 60.5248 8.3183 59.9286C8.3183 59.7658 8.3183 59.5491 8.26383 59.3863C8.20935 59.2234 8.10105 59.1696 7.82997 59.1151C7.7755 59.1151 7.72166 59.1151 7.72166 59.0606C7.72166 59.0061 7.77614 59.0061 7.82997 59.0061C7.93827 59.0061 8.31766 59.0606 8.4266 59.0606C8.58938 59.1151 8.58938 59.169 8.58938 59.3863C8.58938 59.8203 8.58938 60.1453 8.58938 60.4164C8.58938 60.6876 8.58938 60.9043 8.58938 61.0671C8.58938 61.1216 8.58938 61.2299 8.58938 61.3928C8.58938 61.5011 8.58938 61.6639 8.58938 61.7723C8.58938 61.8268 8.58938 61.8806 8.53491 61.8806C8.53491 61.8806 8.48043 61.8806 8.48043 61.7723C8.48043 61.6639 8.48043 61.6094 8.48043 61.5556C8.48043 61.4473 8.37213 61.3928 8.20935 61.3928C7.99274 61.3928 7.55889 61.3928 7.01672 61.3928H5.98687V61.4453H5.98623Z" fill="white"/>
<path d="M6.25728 55.8054C6.52836 55.6426 7.99207 54.6669 8.20868 54.5579C8.31698 54.4496 8.37146 54.3951 8.42529 54.2323C8.42529 54.1778 8.47976 54.0695 8.47976 54.0156C8.47976 53.9611 8.47976 53.9611 8.53423 53.9611C8.58871 53.9611 8.58871 54.0156 8.58871 54.0695V54.2323C8.58871 54.3951 8.58871 54.8291 8.58871 55.2625C8.58871 55.4253 8.58871 55.4791 8.53423 55.4791C8.47976 55.4791 8.47976 55.4791 8.47976 55.4246C8.47976 55.4246 8.42529 55.3701 8.37146 55.4246C7.82929 55.7503 7.3416 56.0753 6.90775 56.3465L8.20868 57.16C8.31698 57.2144 8.37146 57.2683 8.42529 57.2683C8.47976 57.2683 8.53359 57.2138 8.53359 57.16C8.53359 57.1055 8.53359 57.1055 8.53359 57.0516C8.53359 56.9971 8.58807 56.9971 8.58807 56.9971C8.64254 56.9971 8.64254 57.0516 8.64254 57.1055V57.2138C8.64254 57.2683 8.64254 57.6478 8.64254 57.7561C8.64254 57.8645 8.64254 58.1356 8.64254 58.244V58.3523C8.64254 58.4068 8.64254 58.4606 8.58807 58.4606C8.53359 58.4606 8.53359 58.4062 8.53359 58.4062C8.53359 58.3517 8.53359 58.2978 8.53359 58.1895C8.47912 58.0267 8.37082 57.9183 8.15421 57.7555L6.63603 56.6708L5.06401 57.6472C4.8474 57.81 4.73846 57.9183 4.68463 58.0812C4.68463 58.1895 4.63015 58.244 4.63015 58.2978C4.63015 58.3517 4.63015 58.3523 4.57568 58.3523C4.52121 58.3523 4.52121 58.2978 4.52121 58.244C4.52121 58.0811 4.52121 57.6472 4.52121 57.3766C4.52121 57.3221 4.52121 56.9426 4.52121 56.726C4.52121 56.6715 4.52121 56.6176 4.57568 56.6176C4.63015 56.6176 4.63015 56.6721 4.63015 56.726C4.63015 56.7805 4.63015 56.8343 4.63015 56.8343C4.63015 56.8888 4.68463 56.8888 4.68463 56.8888C4.7391 56.8888 4.79293 56.8888 4.8474 56.8343C5.28126 56.5631 5.66065 56.3465 6.04003 56.1292C5.76895 55.9663 5.06401 55.4785 4.90188 55.3701C4.8474 55.3157 4.7391 55.3157 4.68527 55.3157C4.63144 55.3157 4.63079 55.3701 4.57696 55.424C4.57696 55.4785 4.57696 55.5323 4.57696 55.5868C4.57696 55.6413 4.57696 55.6413 4.52249 55.6413C4.46802 55.6413 4.46802 55.5868 4.46802 55.533C4.46802 55.3163 4.46802 55.0451 4.46802 54.9362C4.46802 54.8272 4.46802 54.6105 4.46802 54.3938C4.46802 54.3393 4.46802 54.2855 4.52249 54.2855C4.57696 54.2855 4.57696 54.34 4.57696 54.3938C4.57696 54.4477 4.57696 54.5022 4.63143 54.6105C4.68591 54.7188 4.79421 54.8272 5.06529 54.99L6.25728 55.8054Z" fill="white"/>
<path d="M4.95635 50.9795C4.63079 51.0879 4.57696 51.1962 4.57696 51.4135C4.57696 51.5219 4.57696 51.5763 4.57696 51.6302C4.57696 51.6847 4.57696 51.6847 4.52249 51.6847C4.46802 51.6847 4.46802 51.6302 4.46802 51.5219C4.46802 51.1962 4.46802 50.8712 4.46802 50.7084C4.46802 50.5455 4.46802 50.2744 4.46802 50.0032C4.46802 49.9487 4.46802 49.8949 4.52249 49.8949C4.57696 49.8949 4.57696 49.9494 4.57696 50.0032C4.57696 50.1115 4.57696 50.166 4.63143 50.2199C4.63143 50.2744 4.68591 50.2744 4.73974 50.2744C4.79357 50.2744 4.95635 50.2199 5.1736 50.166L7.61333 49.1897C7.07116 48.9186 5.28254 48.2134 4.90252 48.1051C4.84804 48.1051 4.73974 48.0506 4.68591 48.0506C4.63144 48.0506 4.63143 48.0506 4.5776 48.1051C4.5776 48.1595 4.5776 48.2679 4.5776 48.3217C4.5776 48.3762 4.5776 48.4301 4.52313 48.4301C4.46866 48.4301 4.46866 48.3756 4.46866 48.2672C4.46866 47.9961 4.46866 47.7249 4.46866 47.6711C4.46866 47.5627 4.46866 47.2916 4.46866 47.1287C4.46866 47.0743 4.46866 47.0204 4.52313 47.0204C4.5776 47.0204 4.5776 47.0749 4.5776 47.1287C4.5776 47.1832 4.5776 47.2916 4.63208 47.3999C4.68655 47.4544 4.79485 47.5627 5.11977 47.6711C5.66193 47.8877 5.93301 48.0506 6.58348 48.3762C7.39672 48.7557 7.99271 49.0269 8.26379 49.1352C8.58935 49.2981 8.64318 49.3519 8.64318 49.4064C8.64318 49.4609 8.58871 49.5147 8.31762 49.6231L4.95635 50.9795Z" fill="white"/>
<path d="M5.98623 45.9364C5.17299 45.9364 5.01021 45.9364 4.84807 45.9364C4.68594 45.9364 4.57699 45.9909 4.57699 46.2076C4.57699 46.2621 4.57699 46.3704 4.57699 46.4243C4.57699 46.4787 4.57699 46.5326 4.52252 46.5326C4.46805 46.5326 4.46805 46.4781 4.46805 46.4243C4.46805 46.1531 4.46805 45.7736 4.46805 45.6108C4.46805 45.4479 4.46805 44.1466 4.46805 44.0383C4.46805 43.9299 4.46805 43.8216 4.41357 43.8216C4.41357 43.7671 4.41357 43.7671 4.41357 43.7133C4.41357 43.6588 4.41357 43.6588 4.46805 43.6588C4.52252 43.6588 4.57635 43.7133 4.84743 43.7133C4.9019 43.7133 5.11851 43.7133 5.22682 43.7677C5.22682 43.7677 5.33512 43.7677 5.33512 43.8222C5.33512 43.8767 5.33512 43.8767 5.28065 43.8767C5.22618 43.8767 5.17235 43.8767 5.06404 43.9312C4.95574 43.9857 4.90126 44.0395 4.84743 44.3107C4.84743 44.4191 4.84743 45.0697 4.84743 45.1781C4.84743 45.1781 4.84743 45.2325 4.90191 45.2325H6.25731C6.31178 45.2325 6.31178 45.2325 6.31178 45.1781C6.31178 45.0697 6.31178 44.3107 6.31178 44.2017C6.31178 44.0934 6.31178 43.9851 6.20348 43.9306C6.0407 43.8222 6.0407 43.8222 6.0407 43.8222C6.0407 43.8222 6.0407 43.7677 6.09517 43.7677C6.14965 43.7677 6.20348 43.7677 6.47456 43.8222C6.58286 43.8222 6.80011 43.8222 6.85394 43.8222C6.90842 43.8222 6.96225 43.8222 6.96225 43.8767C6.96225 43.9312 6.96225 43.9312 6.90778 43.9312C6.8533 43.9312 6.79947 43.9312 6.69117 43.9312C6.58286 43.9857 6.47456 44.0396 6.47456 44.2569C6.47456 44.3652 6.47456 45.0159 6.47456 45.1242C6.47456 45.1242 6.47456 45.1787 6.52903 45.1787H6.96289C7.12567 45.1787 7.61336 45.1787 7.77613 45.1787C8.15552 45.1787 8.20999 45.0159 8.20999 44.4197C8.20999 44.2569 8.20999 44.0402 8.15552 43.8774C8.10104 43.7145 7.99274 43.6607 7.72166 43.6062C7.66719 43.6062 7.61335 43.6062 7.61335 43.5517C7.61335 43.4972 7.66783 43.4972 7.72166 43.4972C7.82996 43.4972 8.20935 43.5517 8.31829 43.5517C8.48107 43.6062 8.48107 43.66 8.48107 43.8774C8.48107 44.3114 8.48107 44.6364 8.48107 44.9075C8.48107 45.1787 8.48107 45.3954 8.48107 45.5582C8.48107 45.6127 8.48107 45.721 8.48107 45.8839C8.48107 45.9922 8.48107 46.155 8.48107 46.2634C8.48107 46.3178 8.48107 46.3717 8.4266 46.3717C8.4266 46.3717 8.37212 46.3717 8.37212 46.2634C8.37212 46.155 8.37212 46.1005 8.37212 46.0467C8.37212 45.9383 8.26382 45.8839 8.10105 45.8839C7.88444 45.8839 7.45058 45.8839 6.90842 45.8839H5.98687V45.9364H5.98623Z" fill="white"/>
<path d="M5.9862 41.9773C5.17296 41.9773 5.01018 41.9773 4.84804 41.9773C4.68591 41.9773 4.57696 42.0318 4.57696 42.2485C4.57696 42.303 4.57696 42.4113 4.57696 42.4652C4.57696 42.519 4.57696 42.5735 4.52249 42.5735C4.46802 42.5735 4.46802 42.519 4.46802 42.4652C4.46802 42.194 4.46802 41.8145 4.46802 41.7062C4.46802 41.4895 4.46802 41.001 4.46802 40.8388C4.46802 40.4593 4.52249 40.0798 4.68463 39.7542C4.79293 39.5913 5.06401 39.3747 5.4434 39.3747C5.82278 39.3747 6.20217 39.5913 6.63602 40.1882C7.23266 39.7003 7.77418 39.2663 8.09973 38.9407C8.42529 38.615 8.42529 38.3983 8.47912 38.3439C8.47912 38.2894 8.47912 38.2355 8.47912 38.2355C8.47912 38.181 8.53359 38.181 8.53359 38.181C8.58806 38.181 8.58807 38.2355 8.58807 38.2894V38.8317C8.58807 39.1573 8.53359 39.3195 8.47976 39.4285C8.37146 39.6997 8.10037 39.8625 7.66652 40.1875C7.39544 40.4042 7.01605 40.6754 6.90775 40.7298C6.85327 40.7843 6.85327 40.7843 6.85327 40.8382V41.326C6.85327 41.326 6.85327 41.3805 6.90775 41.3805H6.96222C7.44991 41.3805 7.88377 41.3805 8.15485 41.326C8.31762 41.326 8.42593 41.2715 8.42593 41.1093C8.42593 41.001 8.42593 40.8927 8.42593 40.8382C8.42593 40.7837 8.4804 40.7837 8.4804 40.7837C8.53487 40.7837 8.53487 40.8382 8.53487 40.892C8.53487 41.2177 8.53487 41.7055 8.53487 41.7594C8.53487 41.8677 8.53487 42.2472 8.53487 42.4645C8.53487 42.519 8.53487 42.5729 8.4804 42.5729C8.4804 42.5729 8.42593 42.5729 8.42593 42.4645C8.42593 42.3562 8.42593 42.3017 8.42593 42.2478C8.42593 42.1395 8.31762 42.085 8.15485 42.085C7.93824 42.085 7.50438 42.085 6.96222 42.085H5.9862V41.9773ZM6.42006 41.2728C6.47453 41.2728 6.47453 41.2728 6.52836 41.2183C6.58283 41.11 6.58283 40.9472 6.58283 40.7843C6.58283 40.5677 6.58283 40.4587 6.47453 40.4048C6.36623 40.242 6.09514 40.0253 5.66129 40.0253C4.90252 40.0253 4.68527 40.5677 4.68527 40.8927C4.68527 41.0555 4.68527 41.1638 4.68527 41.2183C4.68527 41.2728 4.73974 41.2728 4.73974 41.2728H6.42006Z" fill="white"/>
<path d="M5.9862 37.1514C5.17296 37.1514 5.01018 37.1514 4.84804 37.1514C4.68591 37.1514 4.57696 37.2059 4.57696 37.3681C4.57696 37.4226 4.57696 37.5309 4.57696 37.5848C4.57696 37.6393 4.57696 37.6931 4.52249 37.6931C4.46802 37.6931 4.46802 37.6386 4.46802 37.5848C4.46802 37.3681 4.46802 36.9879 4.46802 36.8258C4.46802 36.6636 4.46802 36.3379 4.46802 36.1206C4.46802 36.0661 4.46802 36.0123 4.52249 36.0123C4.57696 36.0123 4.57696 36.0668 4.57696 36.1206C4.57696 36.1751 4.57696 36.2289 4.57696 36.2834C4.57696 36.4463 4.68527 36.5001 4.84804 36.5001C5.01082 36.5001 5.1736 36.5001 5.9862 36.5001H6.96222C7.50438 36.5001 7.93824 36.5001 8.15485 36.5001C8.31763 36.5001 8.37146 36.4456 8.42593 36.2834C8.42593 36.2289 8.42593 36.0668 8.42593 36.0123C8.42593 35.9578 8.4804 35.9039 8.4804 35.9039C8.53487 35.9039 8.53487 35.9584 8.53487 36.0123C8.53487 36.3918 8.53487 36.7713 8.53487 36.9341C8.53487 37.0424 8.53487 37.4764 8.53487 37.6931C8.53487 37.7476 8.53487 37.8014 8.4804 37.8014C8.4804 37.8014 8.42593 37.8014 8.42593 37.6931C8.42593 37.5848 8.42593 37.5303 8.42593 37.4764C8.42593 37.3681 8.31763 37.3136 8.15485 37.3136C7.93824 37.3136 7.50438 37.3136 6.96222 37.3136H5.9862V37.1514Z" fill="white"/>
<path d="M4.73986 33.4096V34.2769C4.73986 34.6026 4.79433 34.7648 4.90263 34.8193C4.95711 34.8738 5.06541 34.9276 5.06541 34.9276C5.11988 34.9276 5.11988 34.9276 5.11988 34.9821C5.11988 35.0366 5.06541 35.0366 5.01158 35.0366C4.90327 35.0366 4.41494 34.9283 4.36111 34.9283C4.30664 34.9283 4.25281 34.8738 4.25281 34.8738C4.25281 34.8193 4.30728 34.7654 4.30728 34.6026C4.30728 34.4398 4.30728 34.2231 4.30728 34.0603V31.7826C4.30728 31.6198 4.30728 31.457 4.30728 31.4031C4.30728 31.2948 4.30728 31.2948 4.30728 31.2403C4.30728 31.1858 4.36175 31.1858 4.41558 31.1858C4.52389 31.1858 4.95775 31.1858 5.06605 31.1858C5.12052 31.1858 5.17436 31.1858 5.17436 31.2403C5.17436 31.2948 5.17436 31.2948 5.06605 31.2948H5.01158C4.8488 31.2948 4.68603 31.4576 4.68603 31.9455V32.6506H6.90851C7.3962 32.6506 7.83006 32.6506 8.10114 32.5961C8.26392 32.5961 8.37222 32.5416 8.37222 32.3794C8.37222 32.325 8.37222 32.1628 8.37222 32.1083C8.37222 32.0538 8.42669 31.9999 8.42669 31.9999C8.48116 31.9999 8.48116 32.0544 8.48116 32.1083C8.48116 32.4878 8.48116 32.8673 8.48116 33.0301C8.48116 33.1384 8.48116 33.5724 8.48116 33.7891C8.48116 33.8436 8.48116 33.8974 8.42669 33.8974C8.42669 33.8974 8.37222 33.8974 8.37222 33.7891C8.37222 33.6808 8.37222 33.6263 8.37222 33.5724C8.37222 33.4641 8.26392 33.4096 8.10114 33.4096C7.88453 33.4096 7.45067 33.4096 6.90851 33.4096H4.73986Z" fill="white"/>
<path d="M7.17873 29.8307C7.17873 29.8852 7.17873 29.8852 7.17873 29.8307L7.9375 30.2102C8.04581 30.2647 8.20858 30.3185 8.26305 30.3185C8.37136 30.3185 8.42583 30.264 8.42583 30.1018V29.9935C8.42583 29.939 8.42583 29.8852 8.4803 29.8852C8.53478 29.8852 8.53478 29.9397 8.53478 29.9935C8.53478 30.1563 8.53478 30.4275 8.53478 30.6442C8.53478 30.6987 8.53478 31.0237 8.53478 31.2948C8.53478 31.3493 8.53478 31.4032 8.4803 31.4032C8.42583 31.4032 8.42583 31.4032 8.42583 31.3487C8.42583 31.2942 8.42583 31.2403 8.42583 31.1859C8.37136 30.9147 8.20922 30.8064 7.93814 30.698L4.46856 29.2339C4.30578 29.1794 4.25195 29.1255 4.25195 29.071C4.25195 28.9627 4.30643 28.9627 4.41473 28.9082C4.74028 28.7454 6.96276 27.8235 7.77601 27.444C8.2637 27.2274 8.31817 27.0645 8.37264 26.9562C8.37264 26.8479 8.37264 26.7934 8.37264 26.7395C8.37264 26.685 8.37264 26.685 8.42711 26.685C8.48159 26.685 8.48159 26.7395 8.48159 26.9562C8.48159 27.1729 8.48159 27.553 8.48159 28.0409C8.48159 28.1492 8.48159 28.2037 8.42711 28.2037C8.37264 28.2037 8.37264 28.2037 8.37264 28.1492C8.37264 28.0947 8.31817 28.0947 8.26434 28.0947L7.18001 28.5287C7.12554 28.5287 7.12554 28.5832 7.12554 28.5832V29.8307H7.17873ZM6.85382 28.6377C6.85382 28.5832 6.85382 28.5832 6.85382 28.6377L5.44458 29.1255H5.39011C5.39011 29.1255 5.44458 29.1255 5.44458 29.18L6.85382 29.7223H6.90829V28.6377H6.85382Z" fill="white"/>
<path d="M4.73986 25.2754V26.1427C4.73986 26.4684 4.79433 26.6306 4.90263 26.685C4.95711 26.7395 5.06541 26.7934 5.06541 26.7934C5.11988 26.7934 5.11988 26.7934 5.11988 26.8479C5.11988 26.9024 5.06541 26.9024 5.01158 26.9024C4.90327 26.9024 4.41494 26.794 4.36111 26.794C4.30664 26.794 4.25281 26.7395 4.25281 26.7395C4.25281 26.685 4.30728 26.6312 4.30728 26.4684C4.30728 26.3055 4.30728 26.0889 4.30728 25.926V23.6484C4.30728 23.4856 4.30728 23.3227 4.30728 23.2689C4.30728 23.1606 4.30728 23.1061 4.30728 23.1061C4.30728 23.0516 4.36175 23.0516 4.41558 23.0516C4.52389 23.0516 4.95775 23.0516 5.06605 23.0516C5.12052 23.0516 5.17436 23.0516 5.17436 23.1061C5.17436 23.1606 5.17436 23.1606 5.06605 23.1606H5.01158C4.8488 23.1606 4.68603 23.3234 4.68603 23.8112V24.5164H6.90851C7.3962 24.5164 7.83006 24.5164 8.10114 24.4619C8.26392 24.4619 8.37222 24.4074 8.37222 24.2452C8.37222 24.1907 8.37222 24.0285 8.37222 23.974C8.37222 23.9196 8.42669 23.8657 8.42669 23.8657C8.48116 23.8657 8.48116 23.9202 8.48116 23.974C8.48116 24.3535 8.48116 24.733 8.48116 24.8959C8.48116 25.0042 8.48116 25.4382 8.48116 25.6549C8.48116 25.7094 8.48116 25.7632 8.42669 25.7632C8.42669 25.7632 8.37222 25.7632 8.37222 25.6549C8.37222 25.5465 8.37222 25.4921 8.37222 25.4382C8.37222 25.3299 8.26392 25.2754 8.10114 25.2754C7.88453 25.2754 7.45067 25.2754 6.90851 25.2754H4.73986Z" fill="white"/>
<path d="M5.98629 21.588C5.17305 21.588 5.01027 21.588 4.84813 21.588C4.686 21.588 4.57705 21.6425 4.57705 21.8592C4.57705 21.9137 4.57705 22.022 4.57705 22.0759C4.57705 22.1303 4.57705 22.1842 4.52258 22.1842C4.41427 22.1297 4.41428 22.0759 4.41428 22.0214C4.41428 21.7502 4.41428 21.3707 4.41428 21.2079C4.41428 21.045 4.41428 19.7437 4.41428 19.6354C4.41428 19.527 4.41427 19.4187 4.3598 19.4187C4.3598 19.3642 4.3598 19.3642 4.3598 19.3104C4.3598 19.2559 4.3598 19.2559 4.41428 19.2559C4.46875 19.2559 4.52258 19.3104 4.79366 19.3104C4.84813 19.3104 5.06474 19.3104 5.17305 19.3649C5.17305 19.3649 5.28135 19.3649 5.28135 19.4193C5.28135 19.4738 5.28135 19.4738 5.22688 19.4738C5.17241 19.4738 5.11857 19.4738 5.01027 19.5283C4.90197 19.5828 4.84749 19.6367 4.79366 19.9078C4.79366 20.0162 4.79366 20.6668 4.79366 20.7752C4.79366 20.7752 4.79366 20.8297 4.84813 20.8297H6.20354C6.25801 20.8297 6.25801 20.8296 6.25801 20.7752C6.25801 20.6668 6.25801 19.9078 6.25801 19.7988C6.25801 19.6905 6.25801 19.5822 6.14971 19.5277C6.0414 19.4732 6.0414 19.4193 6.0414 19.4193C6.0414 19.4193 6.0414 19.3649 6.09587 19.3649C6.15035 19.3649 6.20418 19.3649 6.47526 19.4193C6.58356 19.4193 6.80081 19.4193 6.85465 19.4193C6.90912 19.4193 6.96295 19.4193 6.96295 19.4738C6.96295 19.5283 6.96295 19.5283 6.90848 19.5283C6.85401 19.5283 6.80017 19.5283 6.69187 19.5283C6.58356 19.5828 6.47526 19.6367 6.47526 19.854C6.47526 19.9623 6.47526 20.613 6.47526 20.7213C6.47526 20.7213 6.47526 20.7758 6.52973 20.7758H6.96359C7.12637 20.7758 7.61406 20.7758 7.77683 20.7758C8.15622 20.7758 8.21069 20.613 8.21069 20.0168C8.21069 19.854 8.21069 19.6373 8.15622 19.4745C8.10175 19.3116 7.99344 19.2578 7.72236 19.2033C7.66789 19.2033 7.61406 19.2033 7.61406 19.1488C7.61406 19.0943 7.66853 19.0943 7.72236 19.0943C7.83067 19.0943 8.21005 19.1488 8.319 19.1488C8.48177 19.2033 8.48177 19.2572 8.48177 19.4745C8.48177 19.9085 8.48177 20.2335 8.48177 20.5046C8.48177 20.7758 8.48177 20.9925 8.48177 21.1553C8.48177 21.2098 8.48177 21.3181 8.48177 21.481C8.48177 21.5893 8.48177 21.7521 8.48177 21.8605C8.48177 21.9149 8.48177 21.9688 8.4273 21.9688C8.4273 21.9688 8.37283 21.9688 8.37283 21.8605C8.37283 21.7521 8.37283 21.6976 8.37283 21.6438C8.37283 21.5354 8.26452 21.481 8.10175 21.481C7.88514 21.481 7.45128 21.481 6.90912 21.481H5.98757V21.588H5.98629Z" fill="white"/>
<path d="M6.96222 14.3762C7.66716 14.3762 7.99207 14.3762 8.10038 14.2679C8.20868 14.1595 8.20868 13.9422 8.20868 13.5089C8.20868 13.1832 8.20868 12.9665 8.0459 12.8582C7.99143 12.8037 7.8293 12.7499 7.72035 12.6954C7.66588 12.6954 7.61205 12.6954 7.61205 12.6409C7.61205 12.5864 7.66652 12.5864 7.72035 12.5864C7.77418 12.5864 8.20804 12.6409 8.37082 12.6947C8.47912 12.7492 8.53359 12.7492 8.53359 13.0742C8.53359 13.4537 8.53359 13.8332 8.53359 14.1044C8.53359 14.3756 8.53359 14.6467 8.53359 14.8634C8.53359 14.9179 8.53359 15.0262 8.53359 15.1891C8.53359 15.3519 8.53359 15.4602 8.53359 15.5686C8.53359 15.623 8.53359 15.6769 8.47912 15.6769C8.47912 15.6769 8.42465 15.6769 8.42465 15.5686C8.42465 15.4602 8.42465 15.4057 8.42465 15.3519C8.42465 15.2435 8.31634 15.1891 8.15357 15.1891C7.93696 15.1891 7.5031 15.1891 6.96094 15.1891H5.98492C5.17168 15.1891 5.0089 15.1891 4.84676 15.1891C4.68399 15.1891 4.57568 15.2435 4.57568 15.4602C4.57568 15.5147 4.57568 15.5686 4.57568 15.623C4.57568 15.6775 4.57568 15.7314 4.52121 15.7314C4.46674 15.7314 4.46674 15.6769 4.46674 15.623C4.46674 15.3519 4.46674 14.9724 4.46674 14.864C4.46674 14.7557 4.46674 14.2672 4.46674 14.0506C4.46674 13.9422 4.46674 13.9422 4.52121 13.9422C4.57568 13.9422 4.57568 13.9967 4.57568 14.0506C4.57568 14.105 4.57568 14.2134 4.57568 14.2672C4.57568 14.4301 4.68399 14.4839 4.84676 14.4839C5.00954 14.4839 5.17232 14.4839 5.98492 14.4839H6.96094V14.3762H6.96222Z" fill="white"/>
<path d="M5.98638 11.5562C5.17314 11.5562 5.01036 11.5562 4.84823 11.5562C4.63162 11.5562 4.57714 11.6107 4.57714 11.8274C4.57714 11.8819 4.57714 11.9902 4.57714 12.0441C4.57714 12.0979 4.57714 12.1524 4.52267 12.1524C4.4682 12.1524 4.4682 12.0979 4.4682 12.0441C4.4682 11.7184 4.4682 11.3389 4.4682 11.1767C4.4682 11.0145 4.4682 10.6344 4.4682 10.4716C4.4682 10.3632 4.4682 10.3632 4.52267 10.3632C4.57714 10.3632 4.57714 10.4177 4.57714 10.4716C4.57714 10.5254 4.57714 10.5799 4.57714 10.6344C4.57714 10.7972 4.68545 10.8511 4.84823 10.8511C5.011 10.8511 5.17378 10.8511 5.98638 10.8511H6.74515C7.5584 10.8511 7.82948 10.6882 8.04609 10.4171C8.26269 10.1459 8.26269 9.87476 8.26269 9.71193C8.26269 9.44077 8.20822 9.1696 7.99161 8.95293C7.72053 8.62727 7.23284 8.62727 6.63621 8.62727H5.93127C5.11802 8.62727 4.95525 8.62727 4.79311 8.62727C4.63034 8.62727 4.52203 8.68176 4.52203 8.84395C4.52203 8.89844 4.52203 9.00678 4.52203 9.06062C4.52203 9.11511 4.52203 9.16896 4.46756 9.16896C4.41309 9.11447 4.41309 9.06062 4.41309 9.00613C4.41309 8.73497 4.41309 8.35547 4.41309 8.35547C4.41309 8.30098 4.41309 7.92148 4.41309 7.7048C4.41309 7.65031 4.41309 7.59647 4.46756 7.59647C4.52203 7.59647 4.52203 7.65096 4.52203 7.7048C4.52203 7.75929 4.52203 7.81314 4.52203 7.86763C4.52203 8.03046 4.63034 8.08431 4.79311 8.08431C4.95589 8.08431 5.11867 8.08431 5.93127 8.08431H6.58174C7.17837 8.08431 7.82884 8.13879 8.20822 8.62663C8.53378 9.00613 8.58761 9.44013 8.58761 9.81963C8.58761 10.0908 8.58761 10.687 8.20822 11.121C7.93714 11.3921 7.55776 11.6633 6.74451 11.6633H5.98574V11.5562H5.98638Z" fill="white"/>
<path d="M6.25737 4.61498C6.52845 4.45215 7.99216 3.47647 8.20877 3.36749C8.31707 3.25916 8.37154 3.20467 8.42538 3.04184C8.42538 2.98735 8.47985 2.87901 8.47985 2.82516C8.47985 2.77068 8.47985 2.77068 8.53432 2.77068C8.58879 2.77068 8.58879 2.82517 8.58879 2.87901V3.04184C8.58879 3.20467 8.58879 3.63866 8.58879 4.07201C8.58879 4.23483 8.58879 4.28868 8.53432 4.28868C8.47985 4.28868 8.47985 4.28868 8.47985 4.23419C8.47985 4.23419 8.42538 4.1797 8.37155 4.23419C7.82938 4.55985 7.34169 4.88486 6.90784 5.15602L8.20877 5.96952C8.31707 6.024 8.37154 6.07785 8.42538 6.07785C8.47985 6.07785 8.53368 6.02336 8.53368 5.96952C8.53368 5.91503 8.53368 5.91503 8.53368 5.86118C8.53368 5.80733 8.58815 5.80669 8.58815 5.80669C8.64263 5.80669 8.64263 5.86118 8.64263 5.91503V6.02336C8.64263 6.07785 8.64263 6.45735 8.64263 6.56569C8.64263 6.67403 8.64263 6.94519 8.64263 7.05353V7.16187C8.64263 7.21636 8.64263 7.27021 8.58815 7.27021C8.53368 7.27021 8.53368 7.21572 8.53368 7.21572C8.53368 7.16123 8.53368 7.10738 8.53368 6.99904C8.47921 6.83622 8.3709 6.72788 8.1543 6.56505L6.63611 5.48039L4.9558 6.2394C4.73919 6.40222 4.63024 6.51056 4.57641 6.67339C4.57641 6.78173 4.52194 6.83622 4.52194 6.89006C4.52194 6.94455 4.52194 6.94455 4.46747 6.94455C4.41299 6.94455 4.41299 6.89006 4.41299 6.83622C4.41299 6.67339 4.41299 6.2394 4.41299 5.96887C4.41299 5.91439 4.41299 5.53488 4.41299 5.31821C4.41299 5.26372 4.41299 5.20987 4.46747 5.20987C4.52194 5.20987 4.52194 5.26436 4.52194 5.31821C4.52194 5.3727 4.52194 5.42655 4.52194 5.42655C4.52194 5.48104 4.57641 5.48103 4.57641 5.48103C4.63088 5.48103 4.68472 5.48104 4.73919 5.42655C5.17305 5.15538 5.55243 4.93871 5.93182 4.72139C5.66074 4.55856 4.9558 4.07073 4.79366 3.96239C4.73919 3.9079 4.63088 3.9079 4.57705 3.9079C4.52322 3.9079 4.52258 3.96239 4.46875 4.01624C4.46875 4.07073 4.46875 4.12457 4.46875 4.17906C4.46875 4.23355 4.46875 4.23355 4.41428 4.23355C4.3598 4.23355 4.3598 4.17906 4.3598 4.12521C4.3598 3.90854 4.3598 3.63738 4.3598 3.5284C4.3598 3.42006 4.3598 3.20274 4.3598 2.98607C4.3598 2.93158 4.3598 2.87773 4.41428 2.87773C4.46875 2.87773 4.46875 2.93222 4.46875 2.98607C4.46875 3.04056 4.46875 3.09441 4.52322 3.20274C4.57769 3.31108 4.686 3.41942 4.95708 3.58225L6.25737 4.61498Z" fill="white"/>
<path d="M78.954 3.42197C79.8211 3.42197 79.9838 3.42197 80.2011 3.42197C80.4177 3.42197 80.4722 3.36748 80.5266 3.1508C80.5266 3.09631 80.5266 2.98798 80.5266 2.93413C80.5266 2.87964 80.5266 2.82579 80.5811 2.82579C80.6356 2.82579 80.6356 2.88028 80.6356 2.93413C80.6356 3.25978 80.6356 3.58479 80.6356 3.74762C80.6356 3.91045 80.6356 5.21178 80.6356 5.32012C80.6356 5.42845 80.6901 5.53679 80.6901 5.59128C80.6901 5.64577 80.7445 5.64577 80.7445 5.69962C80.7445 5.75411 80.6901 5.75411 80.6901 5.75411C80.6356 5.75411 80.5817 5.69962 80.3107 5.69962C80.2562 5.69962 79.9851 5.69962 79.9313 5.64513C79.8768 5.64513 79.823 5.64513 79.823 5.59064C79.823 5.53615 79.8775 5.53615 79.8775 5.53615C79.9319 5.53615 80.0402 5.53615 80.0941 5.48166C80.2024 5.42717 80.2568 5.37332 80.3107 5.10216C80.3107 4.99382 80.3651 4.28867 80.3651 4.18033C80.3651 4.18033 80.3651 4.12584 80.3107 4.12584H78.9014C78.847 4.12584 78.847 4.12584 78.847 4.18033C78.847 4.28867 78.847 5.04767 78.847 5.2105C78.847 5.37332 78.9014 5.42717 78.9553 5.48166C79.0097 5.53615 79.0097 5.53615 79.0097 5.59C79.0097 5.59 79.0097 5.64449 78.9553 5.64449C78.9008 5.64449 78.847 5.64449 78.5214 5.59C78.4131 5.59 78.1958 5.59 78.142 5.59C78.0875 5.59 78.0337 5.59 78.0337 5.53551C78.0337 5.48102 78.0337 5.48102 78.0882 5.48102C78.1427 5.48102 78.251 5.48102 78.3048 5.48102C78.4131 5.42653 78.5214 5.37268 78.5214 5.15537C78.5214 5.04703 78.5759 4.39636 78.5759 4.23354L78.5214 4.17905H78.0337C77.8171 4.17905 77.3288 4.17905 77.1666 4.17905C76.7873 4.17905 76.679 4.39572 76.679 4.99254C76.679 5.15537 76.6789 5.37204 76.7334 5.53487C76.7879 5.69769 76.95 5.75154 77.1673 5.80603C77.2218 5.80603 77.2756 5.80603 77.2756 5.86052C77.2756 5.91501 77.2211 5.91501 77.1128 5.91501C77.0045 5.91501 76.5707 5.86052 76.4623 5.86052C76.2996 5.80603 76.2996 5.75218 76.2996 5.53487C76.2996 5.10088 76.2996 4.77586 76.2996 4.45021C76.2996 4.17905 76.2996 3.96237 76.2996 3.79955C76.2996 3.74506 76.2996 3.58287 76.2996 3.47389C76.2996 3.31107 76.2996 3.20273 76.2996 3.09439C76.2996 3.0399 76.2996 2.98605 76.354 2.98605C76.4085 2.98605 76.4085 2.98605 76.4085 3.09439C76.4085 3.20273 76.4085 3.25722 76.4085 3.31107C76.463 3.4194 76.5713 3.47389 76.7341 3.47389C77.0051 3.47389 77.439 3.47389 77.9812 3.47389H78.9572V3.42197H78.954Z" fill="white"/>
<path d="M78.6827 8.73631C78.4116 8.89914 76.8396 9.87482 76.623 10.0376C76.5147 10.146 76.4064 10.2543 76.4064 10.3633C76.4064 10.4178 76.3519 10.5261 76.3519 10.58C76.3519 10.6345 76.3519 10.6345 76.2974 10.6345C76.2429 10.6345 76.2429 10.58 76.2429 10.5261V10.3633C76.2429 10.2005 76.2429 9.76648 76.2429 9.27864C76.2429 9.11582 76.2429 9.06197 76.2974 9.06197C76.3519 9.06197 76.3519 9.06197 76.3519 9.11646C76.3519 9.11646 76.4064 9.17095 76.4602 9.11646C77.0024 8.7908 77.5445 8.46579 78.0322 8.19463L76.6768 7.32729C76.5685 7.2728 76.514 7.21895 76.4057 7.21895C76.3512 7.21895 76.2974 7.27344 76.2974 7.32729C76.2974 7.38178 76.2974 7.38178 76.2974 7.43562C76.2974 7.49011 76.2429 7.49011 76.2429 7.49011C76.1885 7.49011 76.1885 7.43562 76.1885 7.38178V7.27344C76.1885 7.21895 76.1885 6.83945 76.1885 6.73111C76.1885 6.62277 76.1885 6.35161 76.1885 6.24327V6.29776C76.1885 6.24327 76.1885 6.18942 76.2429 6.18942C76.2974 6.18942 76.2974 6.24391 76.2974 6.24391C76.2974 6.2984 76.2974 6.35225 76.3519 6.46059C76.4064 6.62341 76.5147 6.73175 76.7857 6.94843L78.3578 8.08693L79.9842 7.05676C80.2009 6.89394 80.3636 6.7856 80.4181 6.56892C80.4726 6.46059 80.4726 6.4061 80.4726 6.29776C80.4726 6.24327 80.527 6.24327 80.527 6.24327C80.5815 6.24327 80.5815 6.29776 80.5815 6.35161C80.5815 6.51444 80.5815 6.94843 80.5815 7.21895C80.5815 7.27344 80.5815 7.65294 80.5815 7.86961C80.5815 7.9241 80.5815 7.97795 80.527 7.97795C80.4726 7.97795 80.4726 7.92346 80.4726 7.86961C80.4726 7.81513 80.4726 7.76128 80.4726 7.70679C80.4726 7.6523 80.4181 7.6523 80.3643 7.6523C80.3098 7.6523 80.256 7.6523 80.2015 7.70679C79.7138 7.97795 79.3344 8.19463 78.9544 8.41194C79.2255 8.57477 79.9843 9.1171 80.147 9.22543C80.2553 9.27992 80.3098 9.27992 80.3636 9.27992C80.4181 9.27992 80.4719 9.22543 80.4719 9.17159C80.4719 9.1171 80.4719 9.00876 80.4719 9.00876C80.4719 8.95427 80.4719 8.95427 80.5264 8.95427C80.5809 8.95427 80.5809 9.00876 80.5809 9.06261C80.5809 9.27928 80.5809 9.55045 80.5809 9.65943C80.5809 9.7684 80.5809 9.98508 80.5809 10.2018C80.5809 10.2562 80.5809 10.3101 80.5264 10.3101C80.4719 10.3101 80.4719 10.2556 80.4719 10.2018C80.4719 10.1473 80.4719 10.0934 80.4175 9.98508C80.363 9.87674 80.2009 9.7684 79.9836 9.55109L78.6827 8.73631Z" fill="white"/>
<path d="M77.9241 13.7794C77.1653 13.7794 76.8397 13.7794 76.7314 13.8878C76.6231 13.9961 76.6231 14.2134 76.6231 14.6468C76.6231 14.9724 76.6231 15.1891 76.7859 15.3519C76.8404 15.4064 77.0025 15.4603 77.1115 15.5148C77.1659 15.5148 77.2198 15.5148 77.2198 15.5692C77.2198 15.6237 77.1653 15.6237 77.1115 15.6237C77.0576 15.6237 76.6238 15.5692 76.461 15.5154C76.3527 15.4609 76.2982 15.4609 76.2982 15.1359C76.2982 14.7019 76.2982 14.3769 76.2982 14.1057C76.2982 13.8346 76.2982 13.5634 76.2982 13.3467C76.2982 13.2922 76.2982 13.1301 76.2982 13.0211C76.2982 12.8582 76.2982 12.7499 76.2982 12.6416C76.2982 12.5871 76.2982 12.5332 76.3527 12.5332C76.4072 12.5332 76.4072 12.5332 76.4072 12.6416C76.4072 12.7499 76.4072 12.8044 76.4072 12.8582C76.4072 12.9666 76.5699 13.0211 76.7327 13.0211C77.0038 13.0756 77.4377 13.0756 77.9798 13.0756H79.0097C79.8767 13.0756 80.0395 13.0756 80.2568 13.0756C80.474 13.0756 80.5278 13.0211 80.5823 12.8044C80.5823 12.7499 80.5823 12.6961 80.5823 12.5877C80.5823 12.5332 80.5823 12.4794 80.6368 12.4794C80.6913 12.4794 80.6913 12.5339 80.6913 12.5877C80.6913 12.8589 80.6913 13.2384 80.6913 13.4012C80.6913 13.564 80.6913 13.998 80.6913 14.2686C80.6913 14.3769 80.6913 14.3769 80.6368 14.3769C80.5823 14.3769 80.5823 14.3224 80.5823 14.2686C80.5823 14.2141 80.5823 14.1057 80.5823 14.0519C80.5823 13.8891 80.474 13.8352 80.2568 13.8352C80.094 13.8352 79.9312 13.8352 79.0097 13.8352H77.9253V13.7794H77.9241Z" fill="white"/>
<path d="M77.7068 16.8161C77.7068 16.7622 77.7068 16.7622 77.7068 16.8161L76.8935 16.4366C76.7308 16.3821 76.6225 16.3282 76.5142 16.3282C76.4058 16.3282 76.3514 16.3827 76.3514 16.5449V16.6533C76.3514 16.7077 76.2969 16.7616 76.2969 16.7616C76.2424 16.7616 76.2424 16.7071 76.2424 16.6533C76.2424 16.4366 76.2424 16.1654 76.2424 16.0026C76.2424 15.9481 76.2424 15.6231 76.2424 15.3519C76.2424 15.2974 76.2424 15.2436 76.2969 15.2436C76.3514 15.2436 76.3514 15.2436 76.3514 15.2981C76.3514 15.3526 76.3514 15.4064 76.3514 15.4609C76.4058 15.7321 76.568 15.8404 76.8391 15.9487L80.4714 17.4674C80.6342 17.5219 80.688 17.5757 80.688 17.6302C80.688 17.7386 80.6336 17.7386 80.5253 17.793C80.1997 17.9559 77.8144 18.8777 76.9474 19.2572C76.4052 19.4739 76.3514 19.6367 76.3514 19.745C76.3514 19.8534 76.3514 19.9079 76.3514 19.9617C76.3514 20.0162 76.3514 20.0162 76.2969 20.0162C76.2424 20.0162 76.2424 19.9617 76.2424 19.745C76.2424 19.5284 76.2424 19.0944 76.2424 18.6065C76.2424 18.4982 76.2424 18.4437 76.2969 18.4437C76.3514 18.4437 76.3514 18.4437 76.3514 18.4982C76.3514 18.5527 76.4058 18.5527 76.4597 18.5527L77.5978 18.1187C77.6523 18.1187 77.6523 18.0642 77.6523 18.0642V16.8161H77.7068ZM78.0323 18.0636L79.5505 17.5212H79.605C79.605 17.5212 79.5505 17.5212 79.5505 17.4668L78.0868 16.9244H78.0323V18.0636Z" fill="white"/>
<path d="M78.9539 20.6662C79.821 20.6662 79.9838 20.6662 80.201 20.6662C80.4176 20.6662 80.4721 20.6117 80.5266 20.3951C80.5266 20.3406 80.5266 20.2322 80.5266 20.1784C80.5266 20.1245 80.5266 20.0701 80.581 20.0701C80.6355 20.0701 80.6355 20.1245 80.6355 20.1784C80.6355 20.504 80.6355 20.8291 80.6355 20.9919C80.6355 21.263 80.6355 21.6425 80.6355 21.8592C80.6355 22.8894 80.0934 23.1067 79.7684 23.1067C79.3346 23.1067 78.9552 22.7811 78.7386 22.456C78.5758 22.9439 78.1426 23.5407 77.4915 23.5407C76.8949 23.5407 76.2444 23.0529 76.2444 21.9682C76.2444 21.9137 76.2444 21.697 76.2444 21.4804C76.2444 21.2637 76.2444 21.1009 76.2444 20.9925C76.2444 20.938 76.2444 20.7758 76.2444 20.6669C76.2444 20.504 76.2444 20.3957 76.2444 20.2874C76.2444 20.2329 76.2444 20.179 76.2989 20.179C76.3533 20.179 76.3533 20.179 76.3533 20.2874C76.3533 20.3957 76.3533 20.4502 76.3533 20.504C76.4078 20.6124 76.5161 20.6669 76.6789 20.6669C76.95 20.6669 77.3838 20.6669 77.926 20.6669L78.9539 20.6662ZM77.1647 21.4252C76.7853 21.4252 76.677 21.4252 76.568 21.6419C76.5135 21.8047 76.5135 21.9131 76.5135 22.0759C76.5135 22.4016 76.6763 22.7811 77.3268 22.7811C77.5979 22.7811 78.0317 22.6727 78.3566 22.2387C78.4649 22.1304 78.5194 21.9676 78.5194 21.7509V21.4797C78.5194 21.4797 78.5194 21.4252 78.465 21.4252H77.1647ZM78.8456 21.4252C78.7911 21.4252 78.7911 21.4252 78.7911 21.4797C78.7911 21.5342 78.7911 21.6425 78.7911 21.7509C78.7911 21.9676 78.7911 22.1304 78.8994 22.1849C79.0078 22.3477 79.225 22.456 79.4961 22.456C79.8755 22.456 80.3632 22.2394 80.3632 21.7509C80.3632 21.6964 80.3632 21.5342 80.3632 21.4797C80.3632 21.4252 80.3087 21.4252 80.2549 21.4252H78.8456Z" fill="white"/>
<path d="M78.4118 24.1913C79.3879 24.1913 80.6888 24.842 80.6888 26.6318C80.6888 28.096 79.8756 29.0178 78.5201 29.0178C77.1647 29.0178 76.1349 28.096 76.1349 26.5773C76.1894 24.8959 77.382 24.1913 78.4118 24.1913ZM78.3035 28.1498C79.6045 28.1498 80.3632 27.3908 80.3632 26.469C80.3632 25.8183 79.9839 25.0593 78.574 25.0593C77.3813 25.0593 76.4598 25.71 76.4598 26.7946C76.4604 27.228 76.677 28.1498 78.3035 28.1498Z" fill="white"/>
<path d="M78.9539 30.1563C79.821 30.1563 79.9837 30.1563 80.201 30.1563C80.4176 30.1563 80.4721 30.1018 80.5265 29.8851C80.5265 29.8306 80.5265 29.7223 80.5265 29.6685C80.5265 29.6146 80.5265 29.5601 80.581 29.5601C80.6355 29.5601 80.6355 29.6146 80.6355 29.6685C80.6355 29.9941 80.6355 30.3191 80.6355 30.4819C80.6355 30.6986 80.6355 31.1871 80.6355 31.4038C80.6355 31.7833 80.581 32.2173 80.3644 32.4884C80.2561 32.6513 79.9305 32.9224 79.5512 32.9224C79.1173 32.9224 78.7379 32.7058 78.2502 32.1089C77.5998 32.6513 77.0576 33.0308 76.732 33.4103C76.4065 33.7359 76.3527 33.9526 76.3527 34.0071C76.3527 34.0616 76.3527 34.1154 76.3527 34.1699C76.3527 34.2244 76.2982 34.2244 76.2982 34.2244C76.2437 34.2244 76.2437 34.1699 76.2437 34.1161V33.5737C76.2437 33.2481 76.2982 33.0859 76.352 32.9231C76.4603 32.6519 76.7314 32.4352 77.2191 32.1096C77.5446 31.8929 77.924 31.6217 78.0323 31.5672C78.0868 31.5128 78.0868 31.5128 78.0868 31.4589V30.9166C78.0868 30.9166 78.0868 30.8621 78.0323 30.8621H77.924C77.3819 30.8621 76.948 30.8621 76.6769 30.9166C76.5141 30.9166 76.4058 30.9711 76.3514 31.1333C76.3514 31.2416 76.3514 31.3499 76.3514 31.4044C76.3514 31.4589 76.2969 31.4589 76.2969 31.4589C76.2424 31.4589 76.2424 31.4044 76.2424 31.3506C76.2424 31.0249 76.2424 30.5371 76.2424 30.4287C76.2424 30.3204 76.2424 29.9409 76.2424 29.7236C76.2424 29.6691 76.2424 29.6152 76.2969 29.6152C76.2969 29.6152 76.3514 29.6153 76.3514 29.7236C76.3514 29.8319 76.3514 29.8864 76.3514 29.9403C76.3514 30.0486 76.5141 30.1031 76.6769 30.1031C76.948 30.1031 77.3819 30.1031 77.924 30.1031H78.9539V30.1563ZM78.52 30.9153C78.4656 30.9153 78.4117 30.9153 78.4117 30.9698C78.3572 31.0781 78.3572 31.241 78.3572 31.4038C78.3572 31.6205 78.3572 31.7294 78.4655 31.8378C78.5739 32.0006 78.8449 32.2173 79.3326 32.2173C80.1459 32.2173 80.3625 31.6749 80.3625 31.3499C80.3625 31.1871 80.3625 31.0788 80.3625 31.0243C80.3625 30.9698 80.308 30.9698 80.308 30.9698H78.5194V30.9153H78.52Z" fill="white"/>
<path d="M78.954 34.6027C79.8211 34.6027 79.9838 34.6027 80.2011 34.6027C80.4177 34.6027 80.4722 34.5482 80.5266 34.3315C80.5266 34.277 80.5266 34.1687 80.5266 34.1148C80.5266 34.0603 80.5266 34.0065 80.5811 34.0065C80.6356 34.0065 80.6356 34.061 80.6356 34.1148C80.6356 34.4405 80.6356 34.7655 80.6356 34.9283C80.6356 35.0911 80.6356 36.3925 80.6356 36.5008C80.6356 36.6091 80.6901 36.7175 80.6901 36.772C80.6901 36.8265 80.7445 36.8265 80.7445 36.8803C80.7445 36.9348 80.6901 36.9348 80.6901 36.9348C80.6356 36.9348 80.5817 36.8803 80.3107 36.8803C80.2562 36.8803 79.9851 36.8803 79.9313 36.8258C79.8768 36.8258 79.823 36.8258 79.823 36.7713C79.823 36.7168 79.8775 36.7168 79.8775 36.7168C79.9319 36.7168 80.0402 36.7168 80.0941 36.6624C80.2024 36.6079 80.2568 36.554 80.3107 36.2829C80.3107 36.1745 80.3651 35.4694 80.3651 35.361C80.3651 35.361 80.3651 35.3065 80.3107 35.3065H78.9014C78.847 35.3065 78.847 35.3065 78.847 35.361C78.847 35.4694 78.847 36.2284 78.847 36.3912C78.847 36.554 78.9014 36.6079 78.9553 36.6624C79.0097 36.7168 79.0097 36.7168 79.0097 36.7707C79.0097 36.7707 79.0097 36.8252 78.9553 36.8252C78.9008 36.8252 78.847 36.8252 78.5214 36.7707C78.4131 36.7707 78.1958 36.7707 78.142 36.7707C78.0875 36.7707 78.0337 36.7707 78.0337 36.7162C78.0337 36.6617 78.0337 36.6617 78.0882 36.6617C78.1427 36.6617 78.251 36.6617 78.3048 36.6617C78.4131 36.6072 78.5214 36.5534 78.5214 36.3361C78.5214 36.2277 78.5759 35.5771 78.5759 35.4142L78.5214 35.3597H78.0337C77.8171 35.3597 77.3288 35.3597 77.1666 35.3597C76.7873 35.3597 76.679 35.5764 76.679 36.1732C76.679 36.3361 76.6789 36.5527 76.7334 36.7156C76.7879 36.8784 76.95 36.9322 77.1673 36.9867C77.2218 36.9867 77.2756 36.9867 77.2756 37.0412C77.2756 37.0957 77.2211 37.0957 77.1128 37.0957C77.0045 37.0957 76.5707 37.0412 76.4623 37.0412C76.2996 36.9867 76.2996 36.9329 76.2996 36.7156C76.2996 36.2816 76.2996 35.9566 76.2996 35.6309C76.2996 35.3597 76.2996 35.1431 76.2996 34.9802C76.2996 34.9257 76.2996 34.7636 76.2996 34.6546C76.2996 34.4918 76.2996 34.3834 76.2996 34.2751C76.2996 34.2206 76.2996 34.1667 76.354 34.1667C76.4085 34.1667 76.4085 34.1667 76.4085 34.2751C76.4085 34.3834 76.4085 34.4379 76.4085 34.4918C76.463 34.6001 76.5713 34.6546 76.7341 34.6546C77.0051 34.6546 77.439 34.6546 77.9812 34.6546H78.9572V34.6027H78.954Z" fill="white"/>
<path d="M80.0381 39.4291C80.3636 39.3208 80.4175 39.2125 80.4719 38.9951C80.4719 38.8868 80.4719 38.8323 80.4719 38.7785C80.4719 38.7246 80.5264 38.724 80.5264 38.724C80.5809 38.724 80.5809 38.7785 80.5809 38.8868C80.5809 39.2125 80.5809 39.5375 80.5809 39.7542C80.5809 39.917 80.5809 40.1881 80.5809 40.5132C80.5809 40.5676 80.5809 40.676 80.5264 40.676C80.4719 40.676 80.4719 40.6215 80.4719 40.5676C80.4719 40.4593 80.4719 40.4048 80.4175 40.351C80.363 40.2971 80.363 40.2965 80.3092 40.2965C80.2547 40.2965 80.0926 40.351 79.8753 40.4048L77.2734 41.3811C77.8701 41.6523 79.7132 42.3575 80.1464 42.5196C80.2009 42.5196 80.3092 42.5741 80.363 42.5741C80.4175 42.5741 80.4175 42.5741 80.4713 42.5196C80.4713 42.4652 80.5258 42.3568 80.5258 42.303C80.5258 42.2491 80.5258 42.1946 80.5802 42.1946C80.6347 42.1946 80.6347 42.2491 80.6347 42.3575C80.6347 42.6286 80.6347 42.8998 80.6347 42.9543C80.6347 43.0626 80.6347 43.3338 80.6347 43.4966C80.6347 43.5511 80.6347 43.6049 80.5802 43.6049C80.5258 43.6049 80.5258 43.5505 80.5258 43.4966C80.5258 43.4428 80.5258 43.3338 80.4713 43.2254C80.4168 43.1709 80.3085 43.0626 79.9836 42.8998C79.4414 42.6831 79.1165 42.5203 78.4116 42.1946C77.5445 41.8151 76.9479 41.544 76.6223 41.4356C76.2968 41.2728 76.1885 41.219 76.1885 41.1645C76.1885 41.11 76.2429 41.0561 76.514 40.9478L80.0381 39.4291Z" fill="white"/>
<path d="M78.9539 44.0922C79.8209 44.0922 79.9837 44.0922 80.201 44.0922C80.4176 44.0922 80.472 44.0377 80.5265 43.8755C80.5265 43.821 80.5265 43.7127 80.5265 43.6588C80.5265 43.605 80.5265 43.5505 80.581 43.5505C80.6355 43.5505 80.6355 43.605 80.6355 43.7133C80.6355 43.93 80.6355 44.3101 80.6355 44.4723C80.6355 44.6345 80.6355 45.0147 80.6355 45.2313C80.6355 45.2858 80.6355 45.3397 80.581 45.3397C80.5265 45.3397 80.5265 45.2852 80.5265 45.2313C80.5265 45.1768 80.5265 45.123 80.5265 45.0685C80.472 44.9057 80.4182 44.8518 80.201 44.8518C80.0382 44.8518 79.8754 44.8518 78.9539 44.8518H77.924C77.3818 44.8518 76.8942 44.8518 76.6769 44.8518C76.5141 44.8518 76.4058 44.9063 76.4058 45.0685C76.4058 45.123 76.4058 45.2852 76.4058 45.3397C76.4058 45.3942 76.3514 45.448 76.3514 45.448C76.2969 45.448 76.2969 45.3935 76.2969 45.3397C76.2969 44.9602 76.2969 44.5807 76.2969 44.4178C76.2969 44.3095 76.2969 43.8755 76.2969 43.6588C76.2969 43.6043 76.2969 43.5505 76.3514 43.5505C76.4058 43.5505 76.4058 43.5505 76.4058 43.6588C76.4058 43.7672 76.4058 43.8217 76.4058 43.8755C76.4603 43.9838 76.5141 44.0383 76.6769 44.0383C76.8935 44.0383 77.3818 44.0383 77.924 44.0383H78.9539V44.0922Z" fill="white"/>
<path d="M78.9539 46.6955C79.821 46.6955 79.9837 46.6955 80.201 46.6955C80.4176 46.6955 80.4721 46.641 80.5265 46.4243C80.5265 46.3698 80.5265 46.2615 80.5265 46.2076C80.5265 46.1538 80.5265 46.0993 80.581 46.0993C80.6355 46.0993 80.6355 46.1538 80.6355 46.2076C80.6355 46.5333 80.6355 46.8583 80.6355 47.0211C80.6355 47.2378 80.6355 47.7263 80.6355 47.9429C80.6355 48.3224 80.581 48.7564 80.3644 49.0276C80.2561 49.1904 79.9305 49.4616 79.5512 49.4616C79.1173 49.4616 78.7379 49.2449 78.2502 48.6481C77.5998 49.1904 77.0576 49.5699 76.732 49.9494C76.4065 50.2751 76.3527 50.4917 76.3527 50.5456C76.3527 50.6001 76.3527 50.6539 76.3527 50.7084C76.3527 50.7629 76.2982 50.7629 76.2982 50.7629C76.2437 50.7629 76.2437 50.7084 76.2437 50.6546V50.1122C76.2437 49.7866 76.2982 49.6244 76.352 49.4616C76.4603 49.1904 76.7314 48.9737 77.2191 48.6481C77.5446 48.4314 77.924 48.1602 78.0323 48.1058C78.0868 48.0513 78.0868 48.0513 78.0868 47.9974V47.4551C78.0868 47.4551 78.0868 47.4006 78.0323 47.4006H77.924C77.3819 47.4006 76.948 47.4006 76.6769 47.4551C76.5141 47.4551 76.4058 47.5096 76.3514 47.6718C76.3514 47.7801 76.3514 47.8884 76.3514 47.9429C76.3514 47.9974 76.2969 47.9974 76.2969 47.9974C76.2424 47.9974 76.2424 47.9429 76.2424 47.8891C76.2424 47.5634 76.2424 47.0756 76.2424 46.9673C76.2424 46.8589 76.2424 46.4794 76.2424 46.2621C76.2424 46.2076 76.2424 46.1538 76.2969 46.1538C76.2969 46.1538 76.3514 46.1538 76.3514 46.2621C76.3514 46.3704 76.3514 46.4249 76.3514 46.4788C76.3514 46.5871 76.5141 46.6416 76.6769 46.6416C76.948 46.6416 77.3819 46.6416 77.924 46.6416H78.9539V46.6955ZM78.52 47.4545C78.4656 47.4545 78.4117 47.4545 78.4117 47.5089C78.3572 47.6173 78.3572 47.7801 78.3572 47.9429C78.3572 48.1596 78.3572 48.2686 78.4655 48.3769C78.5739 48.5398 78.8449 48.7564 79.3326 48.7564C80.1459 48.7564 80.3625 48.2141 80.3625 47.8891C80.3625 47.7263 80.3625 47.6179 80.3625 47.5634C80.3625 47.5089 80.308 47.5089 80.308 47.5089H78.5194V47.4545H78.52Z" fill="white"/>
<path d="M80.2548 51.6841V50.8167C80.2548 50.4911 80.2003 50.3289 80.092 50.2744C79.9837 50.2199 79.9292 50.1661 79.8754 50.1661C79.8209 50.1661 79.8209 50.1661 79.8209 50.1116C79.8209 50.0571 79.8754 50.0571 79.9292 50.0571C80.0375 50.0571 80.5797 50.1654 80.6342 50.1654C80.6886 50.1654 80.7425 50.2199 80.7425 50.2199C80.7425 50.2744 80.688 50.3283 80.688 50.4911C80.688 50.6539 80.688 50.8706 80.688 51.0879V53.4739C80.688 53.6367 80.688 53.7995 80.688 53.8534C80.688 53.9617 80.7425 54.0162 80.7425 54.0162C80.7425 54.0707 80.688 54.0707 80.6342 54.0707C80.5259 54.0707 80.092 54.0707 79.9292 54.0707C79.8748 54.0707 79.8209 54.0707 79.8209 54.0162C79.8209 53.9617 79.8754 53.9617 79.9292 53.9617H79.9837C80.1465 53.9617 80.3093 53.7989 80.3093 53.2566V52.4976H77.9785C77.4363 52.4976 77.0025 52.4976 76.7314 52.5521C76.5686 52.5521 76.4603 52.6066 76.4058 52.7687C76.4058 52.8232 76.4058 52.9854 76.4058 53.0399C76.4058 53.0944 76.3514 53.1482 76.3514 53.1482C76.2969 53.1482 76.2969 53.0938 76.2969 53.0399C76.2969 52.6604 76.2969 52.2809 76.2969 52.1181C76.2969 52.0097 76.2969 51.5757 76.2969 51.3591C76.2969 51.3046 76.2969 51.2507 76.3514 51.2507C76.4058 51.2507 76.4058 51.2507 76.4058 51.3591C76.4058 51.4674 76.4058 51.5219 76.4058 51.5757C76.4603 51.6841 76.5686 51.7386 76.7314 51.7386C77.0025 51.7386 77.4363 51.7386 77.9785 51.7386H80.2554V51.6841H80.2548Z" fill="white"/>
<path d="M78.9539 54.7751C79.8209 54.7751 79.9837 54.7751 80.201 54.7751C80.4176 54.7751 80.472 54.7206 80.5265 54.504C80.5265 54.4495 80.5265 54.3411 80.5265 54.2873C80.5265 54.2328 80.5265 54.179 80.581 54.179C80.6355 54.179 80.6355 54.2334 80.6355 54.2873C80.6355 54.6129 80.6355 54.9924 80.6355 55.1546C80.6355 55.3175 80.6355 55.697 80.6355 55.9136C80.6355 56.022 80.6355 56.022 80.581 56.022C80.5265 56.022 80.5265 55.9675 80.5265 55.9136C80.5265 55.8598 80.5265 55.8053 80.5265 55.7508C80.472 55.588 80.4182 55.5341 80.201 55.5341C80.0382 55.5341 79.8754 55.5341 78.9539 55.5341H78.1406C77.2735 55.5341 76.948 55.697 76.7314 55.9681C76.5148 56.2393 76.5148 56.5105 76.5148 56.7271C76.5148 56.9983 76.5692 57.2695 76.8403 57.4861C77.1659 57.8118 77.6536 57.8118 78.2496 57.8118H78.9545C79.8216 57.8118 79.9843 57.8118 80.2016 57.8118C80.4182 57.8118 80.4727 57.7573 80.5271 57.5406C80.5271 57.4861 80.5271 57.3778 80.5271 57.3239C80.5271 57.2695 80.5272 57.2156 80.5816 57.2156C80.6361 57.2156 80.6361 57.2701 80.6361 57.3239C80.6361 57.5951 80.6361 58.0291 80.6361 58.0291C80.6361 58.0836 80.6361 58.4631 80.6361 58.7343C80.6361 58.7887 80.6361 58.8426 80.5816 58.8426C80.5272 58.8426 80.5271 58.7881 80.5271 58.7343C80.5271 58.6798 80.5271 58.6259 80.5271 58.5714C80.4727 58.4086 80.4188 58.3548 80.2016 58.3548C80.0388 58.3548 79.876 58.3548 78.9545 58.3548H78.3579C77.7074 58.3548 77.0025 58.3003 76.6231 57.8124C76.2437 57.3784 76.1892 56.9451 76.1892 56.5649C76.1892 56.2393 76.1892 55.6431 76.5686 55.2091C76.8397 54.8835 77.2735 54.6668 78.0868 54.6668H78.9539V54.7751Z" fill="white"/>
<path d="M76.2976 59.7101C76.3521 59.6017 76.3521 59.6017 76.5142 59.6017C76.8398 59.6017 77.1647 59.6017 77.273 59.6562C77.3813 59.6562 77.4358 59.6562 77.4358 59.7107C77.4358 59.7652 77.3813 59.7652 77.3275 59.7652C77.2736 59.7652 77.1108 59.7652 77.0019 59.8197C76.568 59.928 76.4059 60.362 76.4059 60.7415C76.4059 61.2293 76.7315 61.555 77.1647 61.555C77.4358 61.555 77.6524 61.5005 77.9779 60.9588L78.1945 60.6332C78.6284 59.928 79.0078 59.7113 79.4955 59.7113C80.2004 59.7113 80.6336 60.362 80.6336 61.1755C80.6336 61.555 80.5791 61.8262 80.5253 61.989C80.5253 62.0435 80.4708 62.0435 80.4708 62.0435C80.4164 62.0435 80.2542 62.0435 79.7659 62.0435C79.6576 62.0435 79.6031 62.0435 79.6031 61.989C79.6031 61.9345 79.6576 61.9345 79.7114 61.9345C79.7653 61.9345 79.928 61.9345 80.0908 61.7717C80.1991 61.6633 80.3619 61.5005 80.3619 61.121C80.3619 60.687 80.1453 60.3075 79.7653 60.3075C79.4942 60.3075 79.2776 60.4158 79.0065 60.9037L78.8437 61.1204C78.4099 61.8794 77.9766 62.1505 77.4345 62.1505C77.0006 62.1505 76.6757 61.9877 76.3502 61.5537C76.1335 61.2825 76.1335 60.903 76.1335 60.5774C76.1893 60.3062 76.1893 59.9267 76.2976 59.7101Z" fill="white"/>
<path d="M112.998 11.7729C112.998 15.7314 110.721 17.8463 106.818 17.8463C102.753 17.8463 100.367 15.9481 100.367 11.7729V1.74115H102.482V11.7729C102.482 14.5384 104.054 16.0571 106.818 16.0571C109.475 16.0571 110.884 14.5384 110.884 11.7729V1.74115H112.998V11.7729Z" fill="#59595B"/>
<path d="M116.034 6.07912H117.768V7.86893H117.823C118.636 6.45926 119.883 5.80859 121.509 5.80859C124.491 5.80859 125.413 7.54392 125.413 9.98439V17.468H123.569V9.76644C123.569 8.35677 122.702 7.48879 121.239 7.48879C118.962 7.48879 117.877 9.00743 117.877 11.0678V17.5212H116.034L116.034 6.07912Z" fill="#59595B"/>
<path d="M130.237 4.0188H128.339V1.74115H130.237V4.0188ZM128.394 6.07914H130.292V17.4667H128.394V6.07914Z" fill="#59595B"/>
<path d="M138.26 17.4667H136.254L132.025 6.07912H134.14L137.338 15.5692H137.393L140.483 6.07912H142.434L138.26 17.4667Z" fill="#59595B"/>
<path d="M153.873 13.8339C153.385 16.3282 151.542 17.684 148.994 17.684C145.362 17.684 143.627 15.1897 143.519 11.7191C143.519 8.30292 145.741 5.80859 148.886 5.80859C152.897 5.80859 154.144 9.5504 154.036 12.3159H145.524C145.47 14.3224 146.554 16.0577 149.048 16.0577C150.566 16.0577 151.65 15.2987 151.975 13.8345H153.873V13.8339ZM152.03 10.6883C151.921 8.89845 150.62 7.48879 148.777 7.48879C146.826 7.48879 145.633 8.95294 145.525 10.6883H152.03Z" fill="#59595B"/>
<path d="M155.879 6.07913H157.613V8.46512H157.668C158.589 6.62146 159.837 5.75348 161.842 5.80797V7.81446C158.807 7.81446 157.722 9.54978 157.722 12.4236V17.4667H155.879L155.879 6.07913Z" fill="#59595B"/>
<path d="M164.444 13.8877C164.498 15.5686 165.962 16.1109 167.479 16.1109C168.672 16.1109 170.244 15.8397 170.244 14.4301C170.244 12.9659 168.401 12.7492 166.503 12.3153C164.66 11.8813 162.763 11.2851 162.763 9.11577C162.763 6.83812 165.04 5.86244 166.991 5.86244C169.485 5.86244 171.49 6.67593 171.653 9.44142H169.81C169.702 7.97727 168.401 7.54328 167.154 7.54328C166.016 7.54328 164.714 7.86893 164.714 9.00743C164.714 10.3633 166.72 10.5799 168.455 11.0139C170.298 11.4479 172.195 12.0441 172.195 14.2673C172.195 16.9789 169.647 17.8462 167.37 17.8462C164.822 17.8462 162.654 16.8161 162.545 13.9961H164.443V13.8877H164.444Z" fill="#59595B"/>
<path d="M176.262 4.0188H174.419V1.74115H176.262V4.0188ZM174.419 6.07914H176.262V17.4667H174.419V6.07914Z" fill="#59595B"/>
<path d="M189.326 17.4667H187.483V15.9481H187.429C186.833 17.1956 185.37 17.7379 183.797 17.7379C180.273 17.7379 178.539 14.9724 178.539 11.7729C178.539 8.57344 180.273 5.86244 183.743 5.86244C184.936 5.86244 186.562 6.29644 187.429 7.65226H187.484V1.74178H189.327V17.4667H189.326ZM184.068 16.0571C186.562 16.0571 187.538 13.8877 187.538 11.7729C187.538 9.54976 186.508 7.43494 183.96 7.43494C181.412 7.43494 180.545 9.60425 180.545 11.8274C180.544 13.9961 181.628 16.0571 184.068 16.0571Z" fill="#59595B"/>
<path d="M202.282 17.4129C201.957 17.6296 201.523 17.7386 200.927 17.7386C199.951 17.7386 199.355 17.1962 199.355 16.0033C198.325 17.1962 196.915 17.7386 195.343 17.7386C193.283 17.7386 191.602 16.8167 191.602 14.5391C191.602 11.9364 193.5 11.3941 195.451 11.0146C197.511 10.6351 199.3 10.7434 199.3 9.33377C199.3 7.70679 197.945 7.43562 196.752 7.43562C195.18 7.43562 193.988 7.92346 193.933 9.60494H192.09C192.198 6.78496 194.367 5.80928 196.915 5.80928C198.975 5.80928 201.198 6.29712 201.198 8.95427V14.8109C201.198 15.6782 201.198 16.1122 201.795 16.1122C201.957 16.1122 202.12 16.1122 202.391 16.0039V17.4136H202.282V17.4129ZM199.247 11.6101C198.542 12.1525 197.132 12.1525 195.885 12.3691C194.638 12.5858 193.608 13.0198 193.608 14.4295C193.608 15.677 194.638 16.1103 195.831 16.1103C198.27 16.1103 199.3 14.5917 199.3 13.5615V11.6095H199.247V11.6101Z" fill="#59595B"/>
<path d="M214.209 17.4667H212.366V15.9481H212.311C211.714 17.1956 210.251 17.7379 208.679 17.7379C205.155 17.7379 203.421 14.9724 203.421 11.7729C203.421 8.57344 205.155 5.86244 208.625 5.86244C209.818 5.86244 211.444 6.29644 212.311 7.65226H212.366V1.74178H214.209V17.4667ZM208.897 16.0571C211.39 16.0571 212.366 13.8877 212.366 11.7729C212.366 9.54976 211.336 7.43494 208.788 7.43494C206.24 7.43494 205.373 9.60425 205.373 11.8274C205.373 13.9961 206.511 16.0571 208.897 16.0571Z" fill="#59595B"/>
<path d="M100.53 24.0285H111.805V25.8722H102.698V31.0236H111.209V32.8673H102.698V38.5611H111.914V40.4048H100.53V24.0285Z" fill="#59595B"/>
<path d="M124.003 40.4048H122.16V38.5066H122.105C121.292 39.9708 119.936 40.6759 118.256 40.6759C115.166 40.6759 114.191 38.8861 114.191 36.3379V28.5293H116.142V36.5546C116.142 38.0188 117.063 38.9406 118.527 38.9406C120.912 38.9406 122.051 37.3681 122.051 35.2533V28.5293H124.002V40.4048H124.003Z" fill="#59595B"/>
<path d="M126.822 28.5294H128.665V31.0237H128.719C129.641 29.1255 130.942 28.2037 133.056 28.2582V30.3185C129.912 30.3185 128.773 32.1083 128.773 35.0905V40.3503H126.822V28.5294Z" fill="#59595B"/>
<path d="M139.236 28.2582C142.976 28.2582 144.982 30.9698 144.982 34.4943C144.982 37.965 142.976 40.676 139.236 40.676C135.495 40.676 133.489 37.9643 133.489 34.4943C133.435 30.9692 135.441 28.2582 139.236 28.2582ZM139.236 38.9406C141.295 38.9406 142.922 37.3137 142.922 34.4943C142.922 31.6205 141.295 29.9935 139.236 29.9935C137.176 29.9935 135.55 31.6205 135.55 34.4943C135.495 37.3143 137.176 38.9406 139.236 38.9406Z" fill="#59595B"/>
<path d="M147.313 28.5293H149.265V30.1563H149.319C149.969 28.855 151.488 28.2582 153.113 28.2582C156.746 28.2582 158.589 31.132 158.589 34.4943C158.589 37.8566 156.8 40.676 153.168 40.676C151.975 40.676 150.186 40.242 149.319 38.8323H149.265V44.9601H147.313V28.5293ZM152.842 29.9935C150.241 29.9935 149.21 32.2167 149.21 34.4398C149.21 36.7713 150.24 38.9406 152.951 38.9406C155.607 38.9406 156.529 36.663 156.529 34.3315C156.475 32.1083 155.337 29.9935 152.842 29.9935Z" fill="#59595B"/>
<path d="M170.949 36.6092C170.407 39.2118 168.564 40.6221 165.908 40.6221C162.113 40.6221 160.324 38.0195 160.215 34.386C160.215 30.807 162.546 28.2043 165.799 28.2043C169.974 28.2043 171.275 32.109 171.166 34.9828H162.276C162.221 37.0431 163.36 38.8874 165.962 38.8874C167.588 38.8874 168.673 38.1284 169.052 36.5559H170.95V36.6092H170.949ZM169.052 33.3013C168.943 31.4577 167.588 29.939 165.636 29.939C163.577 29.939 162.384 31.4577 162.221 33.3013H169.052Z" fill="#59595B"/>
<path d="M183.634 40.3509C183.308 40.5676 182.875 40.6766 182.225 40.6766C181.195 40.6766 180.598 40.1342 180.598 38.8329C179.514 40.0804 178.05 40.6766 176.424 40.6766C174.255 40.6766 172.52 39.7002 172.52 37.3688C172.52 34.7116 174.526 34.1154 176.532 33.7353C178.701 33.3013 180.544 33.4641 180.544 32C180.544 30.3191 179.135 30.048 177.887 30.048C176.261 30.048 175.014 30.5358 174.906 32.2711H172.954C173.062 29.3428 175.339 28.3126 177.996 28.3126C180.11 28.3126 182.441 28.8005 182.441 31.566V37.6393C182.441 38.5611 182.441 38.9951 183.037 38.9951C183.199 38.9951 183.362 38.9951 183.633 38.8868L183.634 40.3509ZM180.49 34.277C179.731 34.8193 178.267 34.8738 176.967 35.0905C175.666 35.3071 174.581 35.7956 174.581 37.2053C174.581 38.5066 175.666 38.9406 176.858 38.9406C179.406 38.9406 180.491 37.3136 180.491 36.2835V34.277H180.49Z" fill="#59595B"/>
<path d="M110.287 65.2411H108.444V63.7224H108.389C107.793 64.9699 106.33 65.5122 104.757 65.5122C101.234 65.5122 99.4989 62.7467 99.4989 59.5472C99.4989 56.3478 101.234 53.6368 104.703 53.6368C105.896 53.6368 107.522 54.0708 108.389 55.4266H108.444V49.5161H110.287V65.2411ZM105.029 63.8852C107.522 63.8852 108.498 61.7159 108.498 59.6011C108.498 57.3779 107.469 55.2631 104.921 55.2631C102.372 55.2631 101.505 57.4324 101.505 59.6556C101.505 61.7704 102.59 63.8852 105.029 63.8852Z" fill="#59595B"/>
<path d="M122.865 61.662C122.377 64.1563 120.534 65.5122 117.986 65.5122C114.354 65.5122 112.619 63.0178 112.51 59.5472C112.51 56.131 114.733 53.6367 117.877 53.6367C121.889 53.6367 123.135 57.3785 123.027 60.144H114.516C114.461 62.1505 115.546 63.8858 118.039 63.8858C119.557 63.8858 120.641 63.1268 120.967 61.6627H122.865V61.662ZM121.075 58.4625C120.967 56.6727 119.666 55.2631 117.823 55.2631C115.872 55.2631 114.679 56.7272 114.571 58.4625H121.075Z" fill="#59595B"/>
<path d="M126.984 49.5154H125.141V65.241H126.984V49.5154Z" fill="#59595B"/>
<path d="M140.591 49.5154H142.922L149.048 65.241H146.717L144.982 60.5235H138.314L136.58 65.241H134.411L140.591 49.5154ZM139.019 58.7337H144.332L141.73 51.4129H141.676L139.019 58.7337Z" fill="#59595B"/>
<path d="M152.842 53.8534H155.119V55.4804H152.842V62.5293C152.842 63.3967 153.059 63.5595 154.251 63.5595H155.119V65.1865H153.709C151.758 65.1865 150.999 64.807 150.999 62.6922V55.4259H149.047V53.7989H150.999V50.3827H152.842V53.8534H152.842Z" fill="#59595B"/>
<path d="M159.131 49.5154H157.288V65.241H159.131V49.5154Z" fill="#59595B"/>
<path d="M172.142 65.1865C171.816 65.4031 171.383 65.5121 170.786 65.5121C169.81 65.5121 169.214 64.9698 169.214 63.7768C168.184 64.9698 166.774 65.5121 165.202 65.5121C163.143 65.5121 161.462 64.5903 161.462 62.3126C161.462 59.71 163.359 59.1676 165.311 58.7881C167.37 58.4086 169.16 58.517 169.16 57.1073C169.16 55.4803 167.804 55.2091 166.612 55.2091C165.04 55.2091 163.847 55.697 163.793 57.3785H161.949C162.058 54.5585 164.226 53.5828 166.774 53.5828C168.834 53.5828 171.057 54.0706 171.057 56.7278V62.5844C171.057 63.4518 171.057 63.8858 171.654 63.8858C171.817 63.8858 171.979 63.8858 172.25 63.7774V65.1871H172.142V65.1865ZM169.106 59.3843C168.401 59.9266 166.992 59.9266 165.745 60.1433C164.498 60.36 163.468 60.794 163.468 62.2036C163.468 63.4511 164.498 63.8845 165.69 63.8845C168.13 63.8845 169.16 62.3658 169.16 61.3357V59.3837H169.106V59.3843ZM167.154 49.1352H169.539L166.666 52.2802H165.257L167.154 49.1352Z" fill="#59595B"/>
<path d="M173.877 53.8533H175.611V55.6432H175.666C176.479 54.2335 177.726 53.5828 179.352 53.5828C182.333 53.5828 183.255 55.3181 183.255 57.7586V65.2422H181.412V57.5407C181.412 56.131 180.545 55.263 179.082 55.263C176.805 55.263 175.72 56.7817 175.72 58.842V65.2948H173.877L173.877 53.8533Z" fill="#59595B"/>
<path d="M188.73 53.8534H191.007V55.4804H188.73V62.5293C188.73 63.3967 188.947 63.5595 190.139 63.5595H191.007V65.1865H189.597C187.646 65.1865 186.886 64.807 186.886 62.6922V55.4259H184.935V53.7989H186.886V50.3827H188.73V53.8534H188.73Z" fill="#59595B"/>
<path d="M195.018 51.8468H193.175V49.5692H195.018V51.8468ZM193.175 53.8533H195.018V65.2409H193.175V53.8533Z" fill="#59595B"/>
<path d="M205.644 57.5408C205.373 56.1311 204.343 55.2631 202.825 55.2631C200.114 55.2631 199.302 57.3779 199.302 59.7094C199.302 61.8243 200.223 63.8852 202.608 63.8852C204.398 63.8852 205.481 62.8551 205.752 61.1197H207.65C207.216 63.8852 205.481 65.5661 202.608 65.5661C199.139 65.5661 197.296 63.1256 197.296 59.7639C197.296 56.3478 199.03 53.6906 202.663 53.6906C205.211 53.6906 207.325 54.8836 207.542 57.5952H205.644V57.5408Z" fill="#59595B"/>
<path d="M214.642 53.5822C218.275 53.5822 220.172 56.1848 220.172 59.5471C220.172 62.855 218.274 65.5121 214.642 65.5121C211.01 65.5121 209.113 62.9095 209.113 59.5471C209.113 56.2393 211.064 53.5822 214.642 53.5822ZM214.642 63.8851C216.594 63.8851 218.166 62.3665 218.166 59.601C218.166 56.8355 216.594 55.263 214.642 55.263C212.691 55.263 211.119 56.7817 211.119 59.601C211.119 62.3126 212.691 63.8851 214.642 63.8851Z" fill="#59595B"/>
</svg>