<svg width="182" height="78" viewBox="0 0 182 78" fill="none" xmlns="http://www.w3.org/2000/svg">
<path d="M27.082 37.3324H30.5457V60.296H27.082V37.3324Z" fill="#4B4B4A"/>
<path d="M48.9274 48.9778H57.0274V58.7141C54.0546 59.9414 51.1092 60.5687 48.191 60.5687C44.2092 60.5687 40.991 59.4505 38.6183 57.2414C36.2183 55.0323 35.0455 52.2778 35.0455 49.0323C35.0455 45.5959 36.2728 42.7323 38.7546 40.4687C41.2364 38.1778 44.3455 37.0596 48.0546 37.0596C49.4183 37.0596 50.7001 37.1959 51.9274 37.4687C53.1546 37.7414 54.6819 38.2596 56.5637 38.9959V42.3505C53.6728 40.7687 50.8364 39.9778 48.0001 39.9778C45.3546 39.9778 43.1455 40.8232 41.3455 42.5414C39.5455 44.2596 38.6455 46.3596 38.6455 48.8414C38.6455 51.4596 39.5455 53.5868 41.3455 55.2505C43.1455 56.9141 45.491 57.7323 48.3273 57.7323C49.7183 57.7323 51.3546 57.4323 53.291 56.8323L53.6183 56.7232V51.9505H48.9819V48.9778H48.9274Z" fill="#4B4B4A"/>
<path d="M62.1003 37.3324H65.5639V60.296H62.1003V37.3324Z" fill="#4B4B4A"/>
<path d="M68.8638 37.2776H89.0183V40.1958H80.6183V60.2685H77.1547V40.1958H68.891V37.2776H68.8638Z" fill="#4B4B4A"/>
<path d="M96.4364 37.1962H98.8637L109.691 60.2962H106.145L102.927 53.478H92.6455L89.6182 60.2962H86.0728L96.4364 37.1962ZM101.509 50.5598L97.6091 42.2416L94.0091 50.5598H101.509Z" fill="#4B4B4A"/>
<path d="M112.309 37.3324H115.773V57.3233H126.627V60.3233H112.309V37.3324Z" fill="#4B4B4A"/>
<path d="M21.0272 42.8688C19.909 41.0415 18.3817 39.6779 16.4726 38.7234C14.5635 37.7961 11.9726 37.3052 8.67262 37.3052H0.545349V40.2506H4.00899H8.31808C9.98171 40.2506 11.1817 40.3052 11.9181 40.4415C12.6544 40.5506 13.4453 40.7961 14.2908 41.1779C15.1363 41.5597 15.8726 42.0234 16.4999 42.5961C18.2454 44.1506 19.1181 46.1688 19.1181 48.6234C19.1181 51.1325 18.2726 53.2052 16.5544 54.8688C16.0363 55.3597 15.4363 55.7961 14.809 56.1506C14.1817 56.5052 13.3635 56.7779 12.409 56.9961C11.4544 57.2143 10.1181 57.3234 8.37262 57.3234H3.95444V48.5415H0.545349V60.2415H8.18171C10.3363 60.2415 11.7817 60.187 12.5454 60.0779C13.309 59.9688 14.1272 59.7234 15.0544 59.3961C16.609 58.8234 17.9726 58.0052 19.1454 56.9143C20.2908 55.8506 21.1908 54.6234 21.8181 53.2052C22.4454 51.8143 22.7453 50.3415 22.7453 48.787C22.7181 46.6597 22.1726 44.6961 21.0272 42.8688Z" fill="#4B4B4A"/>
<path d="M153.3 37.3871H131.264V41.3689H140.318V60.2689H144.273V41.3689H153.3V37.3871Z" fill="#1382C5" stroke="#1382C5" stroke-width="2.1965"/>
<path d="M163.909 43.2779L153.573 60.2688H148.445L160.882 39.5688C161.182 39.0233 161.618 38.5324 162.191 38.096C162.873 37.5779 163.473 37.3324 163.991 37.3324C164.564 37.3324 165.164 37.5779 165.791 38.0688C166.336 38.5051 166.773 38.996 167.1 39.5688L179.236 60.2688L174.082 60.2415L163.909 43.2779Z" fill="#1382C5" stroke="#1382C5" stroke-width="2.1965"/>
<path d="M2.26364 67.9869H0V67.1687H5.50909V67.9869H3.21818V74.696H2.23636V67.9869H2.26364Z" fill="#020203"/>
<path d="M6.02742 72.1595C6.05469 73.4959 6.90015 74.0414 7.8547 74.0414C8.56379 74.0414 8.97288 73.9323 9.32742 73.7686L9.49106 74.4777C9.13651 74.6414 8.56379 74.805 7.71833 74.805C6.08197 74.805 5.07288 73.7141 5.07288 72.0777C5.07288 70.4414 6.02742 69.1595 7.58197 69.1595C9.32742 69.1595 9.79106 70.7141 9.79106 71.6959C9.79106 71.8868 9.76379 72.0505 9.76379 72.1595H6.02742ZM8.89106 71.4505C8.89106 70.8232 8.6456 69.8414 7.52742 69.8414C6.5456 69.8414 6.10924 70.7686 6.02742 71.4505H8.89106Z" fill="#020203"/>
<path d="M13.9908 74.6959L13.909 74.0141H13.8817C13.5817 74.4505 13.009 74.8323 12.2454 74.8323C11.1545 74.8323 10.609 74.0686 10.609 73.2777C10.609 71.9686 11.7545 71.2595 13.8272 71.2595V71.1505C13.8272 70.7141 13.7181 69.8959 12.5999 69.8959C12.109 69.8959 11.5908 70.0595 11.209 70.305L10.9908 69.6505C11.4272 69.3505 12.0817 69.1595 12.7636 69.1595C14.3999 69.1595 14.809 70.2777 14.809 71.3686V73.3868C14.809 73.8505 14.8363 74.3141 14.8908 74.6959H13.9908ZM13.8545 71.9141C12.7908 71.8868 11.5908 72.0777 11.5908 73.1414C11.5908 73.7686 11.9999 74.0686 12.5181 74.0686C13.2272 74.0686 13.6636 73.6323 13.7999 73.1686C13.8272 73.0595 13.8545 72.9505 13.8545 72.8686V71.9141Z" fill="#020203"/>
<path d="M20.1272 74.4777C19.8818 74.6141 19.3091 74.7777 18.6 74.7777C16.9909 74.7777 15.9272 73.6595 15.9272 72.0232C15.9272 70.3595 17.0454 69.1595 18.8182 69.1595C19.3909 69.1595 19.9091 69.2959 20.1818 69.4323L19.9636 70.1959C19.7182 70.0595 19.3636 69.9505 18.8454 69.9505C17.6182 69.9505 16.9636 70.8777 16.9636 71.9959C16.9636 73.2505 17.7545 74.0141 18.8182 74.0141C19.3636 74.0141 19.7454 73.8777 20.0182 73.7414L20.1272 74.4777Z" fill="#020203"/>
<path d="M21.2455 66.7596H22.2273V70.1415H22.2546C22.4182 69.8687 22.6637 69.6233 22.9637 69.4596C23.2637 69.296 23.5909 69.1869 23.9728 69.1869C24.6818 69.1869 25.8546 69.6233 25.8546 71.5051V74.7233H24.8728V71.6142C24.8728 70.7415 24.5455 70.0051 23.6455 70.0051C23.0182 70.0051 22.5273 70.4415 22.3364 70.9869C22.2818 71.1233 22.2818 71.2596 22.2818 71.4505V74.7233H21.3V66.7596H21.2455Z" fill="#020203"/>
<path d="M27.9271 72.1595C27.9544 73.4959 28.7999 74.0414 29.7544 74.0414C30.4635 74.0414 30.8726 73.9323 31.2271 73.7686L31.3908 74.4777C31.0362 74.6414 30.4635 74.805 29.618 74.805C27.9817 74.805 26.9726 73.7141 26.9726 72.0777C26.9726 70.4414 27.9271 69.1595 29.4817 69.1595C31.2271 69.1595 31.6908 70.7141 31.6908 71.6959C31.6908 71.8868 31.6635 72.0505 31.6635 72.1595H27.9271ZM30.7635 71.4505C30.7635 70.8232 30.518 69.8414 29.3999 69.8414C28.418 69.8414 27.9817 70.7686 27.8999 71.4505H30.7635Z" fill="#020203"/>
<path d="M32.8911 70.9595C32.8911 70.3323 32.8911 69.7868 32.8365 69.2686H33.682L33.7093 70.3323H33.7638C34.0093 69.5959 34.582 69.1595 35.2365 69.1595C35.3456 69.1595 35.4275 69.1595 35.5093 69.1868V70.1141C35.4002 70.0868 35.3184 70.0868 35.182 70.0868C34.5002 70.0868 34.0093 70.605 33.8729 71.3414C33.8456 71.4777 33.8184 71.6414 33.8184 71.805V74.6959H32.8638V70.9595H32.8911Z" fill="#020203"/>
<path d="M40.0637 72.3232L39.3001 74.696H38.291L40.8274 67.1687H42.0001L44.5365 74.696H43.5001L42.7092 72.3232H40.0637ZM42.5183 71.5596L41.7819 69.3778C41.6183 68.8869 41.5092 68.4505 41.4001 68.0141H41.3728C41.2637 68.4505 41.1274 68.9141 40.991 69.3778L40.2547 71.5596H42.5183Z" fill="#020203"/>
<path d="M49.2546 74.4777C49.0092 74.6141 48.4364 74.7777 47.7274 74.7777C46.1183 74.7777 45.0546 73.6595 45.0546 72.0232C45.0546 70.3595 46.1728 69.1595 47.9455 69.1595C48.5183 69.1595 49.0364 69.2959 49.3092 69.4323L49.091 70.1959C48.8455 70.0595 48.491 69.9505 47.9728 69.9505C46.7455 69.9505 46.091 70.8777 46.091 71.9959C46.091 73.2505 46.8819 74.0141 47.9455 74.0141C48.491 74.0141 48.8728 73.8777 49.1455 73.7414L49.2546 74.4777Z" fill="#020203"/>
<path d="M53.3456 74.6959L53.2637 74.0141H53.2365C52.9365 74.4505 52.3637 74.8323 51.6001 74.8323C50.5092 74.8323 49.9637 74.0686 49.9637 73.2777C49.9637 71.9686 51.1092 71.2595 53.1819 71.2595V71.1505C53.1819 70.7141 53.0728 69.8959 51.9547 69.8959C51.4638 69.8959 50.9456 70.0595 50.5637 70.305L50.3456 69.6505C50.7819 69.3505 51.4365 69.1595 52.1183 69.1595C53.7547 69.1595 54.1638 70.2777 54.1638 71.3686V73.3868C54.1638 73.8505 54.191 74.3141 54.2456 74.6959H53.3456ZM53.2092 71.9141C52.1456 71.8868 50.9456 72.0777 50.9456 73.1414C50.9456 73.7686 51.3547 74.0686 51.8728 74.0686C52.5819 74.0686 53.0183 73.6323 53.1547 73.1686C53.1819 73.0595 53.2092 72.9505 53.2092 72.8686V71.9141Z" fill="#020203"/>
<path d="M60.3002 66.7596V73.3051C60.3002 73.796 60.3002 74.3415 60.3548 74.696H59.4821L59.4275 73.7687H59.4002C59.1002 74.3687 58.4457 74.8324 57.573 74.8324C56.2911 74.8324 55.282 73.7142 55.282 72.0778C55.282 70.2778 56.373 69.1596 57.682 69.1596C58.5002 69.1596 59.0457 69.5415 59.2911 69.9778H59.3184V66.7596H60.3002ZM59.3184 71.4778C59.3184 71.3687 59.3184 71.1778 59.2639 71.0687C59.1275 70.4415 58.5821 69.9233 57.8457 69.9233C56.8366 69.9233 56.2366 70.8233 56.2366 72.0233C56.2366 73.1142 56.7548 74.0142 57.8184 74.0142C58.473 74.0142 59.073 73.5778 59.2366 72.8415C59.2639 72.7051 59.2911 72.5687 59.2911 72.4051V71.4778H59.3184Z" fill="#020203"/>
<path d="M62.4271 72.1595C62.4544 73.4959 63.2999 74.0414 64.2544 74.0414C64.9635 74.0414 65.3726 73.9323 65.7271 73.7686L65.8908 74.4777C65.5362 74.6414 64.9635 74.805 64.1181 74.805C62.4817 74.805 61.4726 73.7141 61.4726 72.0777C61.4726 70.4414 62.4271 69.1595 63.9817 69.1595C65.7271 69.1595 66.1908 70.7141 66.1908 71.6959C66.1908 71.8868 66.1635 72.0505 66.1635 72.1595H62.4271ZM65.2908 71.4505C65.2908 70.8232 65.0453 69.8414 63.9271 69.8414C62.9453 69.8414 62.509 70.7686 62.4271 71.4505H65.2908Z" fill="#020203"/>
<path d="M67.4183 70.7414C67.4183 70.1686 67.4183 69.7323 67.3638 69.2686H68.2092L68.2638 70.1414H68.291C68.591 69.6232 69.082 69.1595 69.982 69.1595C70.7183 69.1595 71.2638 69.5959 71.5092 70.2505H71.5365C71.7001 69.9505 71.9183 69.705 72.1365 69.5414C72.4638 69.2959 72.8183 69.1595 73.3092 69.1595C74.0183 69.1595 75.0819 69.6232 75.0819 71.505V74.6959H74.1274V71.6141C74.1274 70.5777 73.7456 69.9505 72.9547 69.9505C72.4092 69.9505 71.9729 70.3595 71.8092 70.8505C71.7547 70.9868 71.7274 71.1505 71.7274 71.3414V74.6959H70.7729V71.4505C70.7729 70.5777 70.391 69.9505 69.6547 69.9505C69.0547 69.9505 68.591 70.4414 68.4547 70.9323C68.4001 71.0686 68.3729 71.2323 68.3729 71.4232V74.6959H67.4183V70.7414Z" fill="#020203"/>
<path d="M76.8274 69.2687L78.0001 72.4596C78.1092 72.8141 78.2456 73.2505 78.3547 73.5778H78.3819C78.491 73.2505 78.6001 72.8414 78.7365 72.4596L79.8001 69.296H80.8365L79.3637 73.1414C78.6547 74.996 78.191 75.9505 77.5365 76.5232C77.0728 76.9596 76.5819 77.1232 76.3365 77.1505L76.091 76.3323C76.3365 76.2505 76.6637 76.0869 76.9365 75.8414C77.2092 75.6232 77.5365 75.2414 77.7547 74.7505C77.8092 74.6414 77.8365 74.5596 77.8365 74.505C77.8365 74.4505 77.8092 74.3687 77.7819 74.2596L75.791 69.2687H76.8274Z" fill="#020203"/>
<path d="M83.8637 73.6868C84.1637 73.8777 84.6546 74.0686 85.1456 74.0686C85.8546 74.0686 86.1819 73.7141 86.1819 73.2505C86.1819 72.7868 85.9092 72.5141 85.1728 72.2686C84.2183 71.9141 83.7546 71.3959 83.7546 70.7414C83.7546 69.8686 84.4637 69.1595 85.6092 69.1595C86.1546 69.1595 86.6183 69.3232 86.9183 69.4868L86.6728 70.1959C86.4546 70.0595 86.0728 69.8959 85.5819 69.8959C85.0092 69.8959 84.6819 70.2232 84.6819 70.6323C84.6819 71.0686 85.0092 71.2868 85.691 71.5595C86.6183 71.9141 87.1092 72.3777 87.1092 73.1959C87.1092 74.1505 86.3728 74.805 85.1183 74.805C84.5183 74.805 84.0001 74.6686 83.6183 74.4232L83.8637 73.6868Z" fill="#020203"/>
<path d="M92.8364 73.1959C92.8364 73.7687 92.8364 74.2596 92.891 74.6687H92.0182L91.9637 73.796H91.9364C91.691 74.2323 91.1182 74.805 90.1637 74.805C89.3182 74.805 88.3091 74.3414 88.3091 72.4323V69.2687H89.291V72.2687C89.291 73.305 89.591 73.9869 90.491 73.9869C91.1455 73.9869 91.6091 73.5232 91.7728 73.0869C91.8273 72.9505 91.8546 72.7596 91.8546 72.596V69.2687H92.8364V73.1959Z" fill="#020203"/>
<path d="M94.4182 71.0415C94.4182 70.3597 94.3909 69.787 94.3636 69.2688H95.2364L95.2909 70.1961H95.3182C95.7273 69.5415 96.3546 69.1324 97.2273 69.1324C98.5091 69.1324 99.4909 70.2506 99.4909 71.887C99.4909 73.8234 98.3182 74.8052 97.0636 74.8052C96.3546 74.8052 95.7273 74.5052 95.4273 73.9597H95.4V76.9052H94.4455V71.0415H94.4182ZM95.3727 72.487C95.3727 72.6234 95.4 72.7597 95.4273 72.8961C95.5909 73.5779 96.1909 74.0415 96.9 74.0415C97.9364 74.0415 98.5364 73.1961 98.5364 71.9415C98.5364 70.8506 97.9636 69.9234 96.9546 69.9234C96.3 69.9234 95.6727 70.4143 95.4818 71.1506C95.4546 71.2597 95.4273 71.4234 95.4273 71.5597V72.487H95.3727Z" fill="#020203"/>
<path d="M100.691 71.0415C100.691 70.3597 100.664 69.787 100.636 69.2688H101.509L101.564 70.1961H101.591C102 69.5415 102.627 69.1324 103.5 69.1324C104.782 69.1324 105.764 70.2506 105.764 71.887C105.764 73.8234 104.591 74.8052 103.336 74.8052C102.627 74.8052 102 74.5052 101.7 73.9597H101.673V76.9052H100.718V71.0415H100.691ZM101.645 72.487C101.645 72.6234 101.673 72.7597 101.7 72.8961C101.864 73.5779 102.464 74.0415 103.173 74.0415C104.209 74.0415 104.809 73.1961 104.809 71.9415C104.809 70.8506 104.236 69.9234 103.227 69.9234C102.573 69.9234 101.945 70.4143 101.755 71.1506C101.727 71.2597 101.7 71.4234 101.7 71.5597V72.487H101.645Z" fill="#020203"/>
<path d="M111.818 71.9414C111.818 73.9323 110.454 74.805 109.145 74.805C107.7 74.805 106.582 73.7414 106.582 72.0232C106.582 70.2232 107.754 69.1595 109.227 69.1595C110.782 69.1595 111.818 70.2777 111.818 71.9414ZM107.564 71.9959C107.564 73.1686 108.245 74.0686 109.2 74.0686C110.127 74.0686 110.836 73.1959 110.836 71.9686C110.836 71.0414 110.373 69.8959 109.227 69.8959C108.054 69.8959 107.564 70.9595 107.564 71.9959Z" fill="#020203"/>
<path d="M113.018 70.9595C113.018 70.3323 113.018 69.7868 112.964 69.2686H113.809L113.836 70.3323H113.891C114.136 69.5959 114.709 69.1595 115.364 69.1595C115.473 69.1595 115.555 69.1595 115.636 69.1868V70.1141C115.527 70.0868 115.445 70.0868 115.309 70.0868C114.627 70.0868 114.136 70.605 114 71.3414C113.973 71.4777 113.945 71.6414 113.945 71.805V74.6959H113.018V70.9595Z" fill="#020203"/>
<path d="M118.037 67.714V69.2685H119.427V70.0049H118.037V72.9231C118.037 73.6049 118.227 73.9867 118.773 73.9867C119.018 73.9867 119.209 73.9594 119.346 73.9322L119.4 74.6685C119.209 74.7504 118.909 74.8049 118.527 74.8049C118.064 74.8049 117.709 74.6685 117.464 74.3958C117.191 74.0958 117.082 73.6322 117.082 72.9776V70.0322H116.264V69.2958H117.082V67.9867L118.037 67.714Z" fill="#020203"/>
<path d="M121.582 67.7413C121.582 68.0686 121.336 68.3413 120.954 68.3413C120.6 68.3413 120.382 68.0686 120.382 67.7413C120.382 67.3867 120.627 67.114 120.982 67.114C121.336 67.1413 121.582 67.414 121.582 67.7413ZM120.491 74.6958V69.2958H121.473V74.6958H120.491Z" fill="#020203"/>
<path d="M123.054 70.7414C123.054 70.1686 123.054 69.7323 123 69.2686H123.873L123.927 70.1686H123.954C124.227 69.6505 124.827 69.1595 125.727 69.1595C126.464 69.1595 127.609 69.5959 127.609 71.4505V74.6686H126.654V71.5595C126.654 70.6868 126.327 69.9505 125.427 69.9505C124.773 69.9505 124.282 70.4141 124.118 70.9595C124.064 71.0959 124.064 71.2595 124.064 71.4232V74.6686H123.082V70.7414H123.054Z" fill="#020203"/>
<path d="M133.8 69.2687C133.773 69.6505 133.745 70.0868 133.745 70.7687V73.905C133.745 75.1323 133.5 75.8959 132.982 76.3868C132.464 76.8777 131.7 77.0414 131.045 77.0414C130.391 77.0414 129.709 76.8777 129.273 76.605L129.518 75.8687C129.873 76.0868 130.418 76.305 131.1 76.305C132.109 76.305 132.818 75.7868 132.818 74.4232V73.8232H132.791C132.491 74.3141 131.918 74.7232 131.1 74.7232C129.763 74.7232 128.809 73.5777 128.809 72.0777C128.809 70.2505 129.982 69.2141 131.209 69.2141C132.136 69.2141 132.654 69.705 132.873 70.1414H132.9L132.954 69.3232H133.8V69.2687ZM132.791 71.3959C132.791 71.2323 132.791 71.0959 132.736 70.9596C132.573 70.3868 132.082 69.9232 131.373 69.9232C130.445 69.9232 129.791 70.7141 129.791 71.9687C129.791 73.0323 130.309 73.905 131.373 73.905C131.973 73.905 132.518 73.5232 132.736 72.8959C132.791 72.7323 132.818 72.5414 132.818 72.3777V71.3959H132.791Z" fill="#020203"/>
<path d="M138.845 67.714V69.2685H140.236V70.0049H138.845V72.9231C138.845 73.6049 139.036 73.9867 139.582 73.9867C139.827 73.9867 140.018 73.9594 140.155 73.9322L140.209 74.6685C140.018 74.7504 139.718 74.8049 139.336 74.8049C138.873 74.8049 138.518 74.6685 138.273 74.3958C138 74.0958 137.891 73.6322 137.891 72.9776V70.0322H137.073V69.2958H137.891V67.9867L138.845 67.714Z" fill="#020203"/>
<path d="M141.3 70.9595C141.3 70.3323 141.3 69.7868 141.245 69.2686H142.091L142.118 70.3323H142.173C142.418 69.5959 142.991 69.1595 143.645 69.1595C143.754 69.1595 143.836 69.1595 143.918 69.1868V70.1141C143.809 70.0868 143.727 70.0868 143.591 70.0868C142.909 70.0868 142.418 70.605 142.282 71.3414C142.254 71.4777 142.227 71.6414 142.227 71.805V74.6959H141.273V70.9595H141.3Z" fill="#020203"/>
<path d="M147.818 74.6959L147.736 74.0141H147.709C147.409 74.4505 146.836 74.8323 146.073 74.8323C144.982 74.8323 144.436 74.0686 144.436 73.2777C144.436 71.9686 145.582 71.2595 147.654 71.2595V71.1505C147.654 70.7141 147.545 69.8959 146.427 69.8959C145.936 69.8959 145.418 70.0595 145.036 70.305L144.818 69.6505C145.254 69.3505 145.909 69.1595 146.591 69.1595C148.227 69.1595 148.636 70.2777 148.636 71.3686V73.3868C148.636 73.8505 148.663 74.3141 148.718 74.6959H147.818ZM147.654 71.9141C146.591 71.8868 145.391 72.0777 145.391 73.1414C145.391 73.7686 145.8 74.0686 146.318 74.0686C147.027 74.0686 147.463 73.6323 147.6 73.1686C147.627 73.0595 147.654 72.9505 147.654 72.8686V71.9141Z" fill="#020203"/>
<path d="M150.164 70.7414C150.164 70.1686 150.164 69.7323 150.109 69.2686H150.982L151.036 70.1686H151.064C151.336 69.6505 151.936 69.1595 152.836 69.1595C153.573 69.1595 154.718 69.5959 154.718 71.4505V74.6686H153.736V71.5595C153.736 70.6868 153.409 69.9505 152.509 69.9505C151.854 69.9505 151.364 70.4141 151.2 70.9595C151.145 71.0959 151.145 71.2595 151.145 71.4232V74.6686H150.164V70.7414Z" fill="#020203"/>
<path d="M156.136 73.6868C156.436 73.8777 156.927 74.0686 157.418 74.0686C158.127 74.0686 158.455 73.7141 158.455 73.2505C158.455 72.7868 158.182 72.5141 157.446 72.2686C156.491 71.9141 156.027 71.3959 156.027 70.7414C156.027 69.8686 156.736 69.1595 157.882 69.1595C158.427 69.1595 158.891 69.3232 159.191 69.4868L158.946 70.1959C158.727 70.0595 158.346 69.8959 157.855 69.8959C157.282 69.8959 156.955 70.2232 156.955 70.6323C156.955 71.0686 157.282 71.2868 157.964 71.5595C158.891 71.9141 159.382 72.3777 159.382 73.1959C159.382 74.1505 158.646 74.805 157.391 74.805C156.818 74.805 156.273 74.6686 155.891 74.4232L156.136 73.6868Z" fill="#020203"/>
<path d="M161.7 67.7413C161.7 68.0686 161.455 68.3413 161.073 68.3413C160.718 68.3413 160.5 68.0686 160.5 67.7413C160.5 67.3867 160.745 67.114 161.1 67.114C161.482 67.1413 161.7 67.414 161.7 67.7413ZM160.609 74.6958V69.2958H161.591V74.6958H160.609Z" fill="#020203"/>
<path d="M164.373 67.714V69.2685H165.764V70.0049H164.373V72.9231C164.373 73.6049 164.564 73.9867 165.109 73.9867C165.355 73.9867 165.545 73.9594 165.682 73.9322L165.736 74.6685C165.545 74.7504 165.245 74.8049 164.864 74.8049C164.4 74.8049 164.045 74.6685 163.8 74.3958C163.527 74.0958 163.418 73.6322 163.418 72.9776V70.0322H162.6V69.2958H163.418V67.9867L164.373 67.714Z" fill="#020203"/>
<path d="M167.918 67.7413C167.918 68.0686 167.673 68.3413 167.291 68.3413C166.936 68.3413 166.718 68.0686 166.718 67.7413C166.718 67.3867 166.964 67.114 167.318 67.114C167.673 67.1413 167.918 67.414 167.918 67.7413ZM166.827 74.6958V69.2958H167.809V74.6958H166.827Z" fill="#020203"/>
<path d="M174.245 71.9414C174.245 73.9323 172.882 74.805 171.573 74.805C170.127 74.805 169.009 73.7414 169.009 72.0232C169.009 70.2232 170.182 69.1595 171.654 69.1595C173.182 69.1595 174.245 70.2777 174.245 71.9414ZM169.991 71.9959C169.991 73.1686 170.673 74.0686 171.627 74.0686C172.554 74.0686 173.264 73.1959 173.264 71.9686C173.264 71.0414 172.8 69.8959 171.654 69.8959C170.482 69.8959 169.991 70.9595 169.991 71.9959Z" fill="#020203"/>
<path d="M175.445 70.7414C175.445 70.1686 175.445 69.7323 175.391 69.2686H176.263L176.318 70.1686H176.345C176.618 69.6505 177.218 69.1595 178.118 69.1595C178.854 69.1595 180 69.5959 180 71.4505V74.6686H179.018V71.5595C179.018 70.6868 178.691 69.9505 177.791 69.9505C177.136 69.9505 176.645 70.4141 176.482 70.9595C176.427 71.0959 176.427 71.2595 176.427 71.4232V74.6686H175.445V70.7414Z" fill="#020203"/>
<path d="M137.782 11.6414C119.182 -4.47674 93.9818 0.650531 90.5727 1.22326C58.8272 9.05053 56.7545 29.2596 56.7545 29.2596C56.7545 29.2596 60.9818 28.9324 70.7454 29.2596C84.4363 -7.80401 130.064 6.62326 137.727 11.6414C137.809 11.6687 137.782 11.6414 137.782 11.6414Z" fill="#1382C5"/>
<path d="M86.0181 17.205C91.9636 13.3596 125.318 2.55957 135.382 30.7323C142.609 30.4868 145.718 30.7323 145.718 30.7323C145.718 30.7323 144.164 15.2687 120.736 9.29593C118.227 8.85957 98.9181 4.2232 85.909 17.2323C85.8818 17.2868 85.8818 17.2868 86.0181 17.205Z" fill="#878889"/>
</svg>