<svg width="295" height="96" viewBox="0 0 295 96" fill="none" xmlns="http://www.w3.org/2000/svg">
<path d="M42.3679 70.0133V71C42.3679 73.4267 42.448 75.8533 42.5014 78.2667C42.5014 78.8133 42.4213 79.2 41.8072 79.2667C36.4011 79.8933 30.6613 80.72 25.2686 79.2667C22.5313 78.4451 19.9969 77.0595 17.8288 75.1993C15.6607 73.3391 13.9071 71.0455 12.681 68.4667C11.422 66.0122 10.5743 63.3683 10.1715 60.64C9.93149 58.9349 9.81106 57.2152 9.81109 55.4933C9.81109 45.2267 9.77994 34.96 9.71765 24.6933V22.4533H19.4753V23.6933C19.4753 33.6533 19.4753 43.6933 19.5421 53.5867C19.5421 60.4667 22.2118 68.7733 29.9405 70.2133C33.9051 71.0785 38.0161 71.0192 41.9541 70.04C42.0911 70.0204 42.2295 70.0115 42.3679 70.0133Z" fill="#DF0B1D"/>
<path d="M30.9149 64.1067V54.48C32.6235 54.48 34.2654 54.48 35.8939 54.48C37.1984 54.4177 38.4943 54.2347 39.7649 53.9333C40.4271 53.7778 41.0219 53.414 41.4616 52.8956C41.9013 52.3771 42.1629 51.7314 42.2077 51.0533C42.3415 49.8136 42.395 48.5666 42.3679 47.32C42.4213 39.3733 42.4657 31.4267 42.5013 23.48V22.36H52.4326C52.4326 22.7867 52.4326 23.1067 52.4326 23.4267C52.4326 33.12 52.2724 42.8267 52.4326 52.52C52.5489 55.3426 51.5815 58.103 49.7281 60.2369C47.8747 62.3707 45.2753 63.7168 42.4613 64C38.7104 64.3067 34.7993 64.1067 30.9149 64.1067Z" fill="#181619"/>
<path d="M88.7135 64.5333C85.2162 64.5333 81.7323 64.5333 78.235 64.5333C77.888 64.5333 77.5009 64.12 77.2339 63.8133C72.6153 58.48 68.0101 53.1111 63.4183 47.7067L59.1468 42.6667C58.8997 42.4457 58.6998 42.1773 58.5588 41.8775C58.4179 41.5777 58.3388 41.2526 58.3263 40.9216C58.3139 40.5906 58.3683 40.2605 58.4863 39.951C58.6043 39.6415 58.7836 39.3588 59.0133 39.12C63.6319 33.5467 68.2727 27.9956 72.9357 22.4667C73.2003 22.1834 73.5631 22.0117 73.9502 21.9867C77.2205 21.9867 80.4909 21.9867 84.0015 21.9867C83.6545 22.44 83.4276 22.7733 83.1739 23.08L70.7466 38.0933V38.1733C68.6375 40.84 68.6242 41.0267 70.88 43.6C75.5698 49.0489 80.304 54.5156 85.0828 60L88.7936 64.2533L88.7135 64.5333Z" fill="#181619"/>
<path d="M112.207 19.4H113.462V27.4C113.462 30.3733 114.796 31.52 117.239 31.52C119.682 31.52 121.03 30.3733 121.03 27.4V19.4H122.245V27.64C122.245 28.9661 121.717 30.2379 120.779 31.1755C119.84 32.1132 118.567 32.64 117.239 32.64C115.912 32.64 114.638 32.1132 113.7 31.1755C112.761 30.2379 112.233 28.9661 112.233 27.64L112.207 19.4Z" fill="#1D1D1B"/>
<path d="M124.461 22.9733H125.595V24.5733C125.848 23.9891 126.27 23.4945 126.809 23.1544C127.347 22.8142 127.975 22.6442 128.612 22.6667C131.282 22.6667 132.016 24 132.016 26.2533V32.2667H130.881V26.4667C130.881 24.88 130.361 23.6533 128.519 23.6533C128.112 23.6537 127.709 23.7384 127.337 23.9022C126.965 24.066 126.631 24.3053 126.356 24.605C126.081 24.9046 125.871 25.2579 125.741 25.6427C125.61 26.0274 125.56 26.4352 125.595 26.84V32.2667H124.461V22.9733Z" fill="#1D1D1B"/>
<path d="M134.178 19.4H135.313V21.2267H134.178V19.4ZM134.178 22.9733H135.313V32.3067H134.178V22.9733Z" fill="#1D1D1B"/>
<path d="M136.554 22.9733H137.769L140.145 30.9733L142.414 22.9733H143.749L146.032 30.9733L148.408 22.9733H149.622L146.619 32.3067H145.378L143.082 24.4933L140.812 32.3067H139.571L136.554 22.9733Z" fill="#1D1D1B"/>
<path d="M151.531 28C151.482 28.4433 151.522 28.892 151.652 29.3189C151.781 29.7459 151.995 30.1422 152.283 30.4838C152.57 30.8255 152.923 31.1053 153.322 31.3063C153.72 31.5073 154.156 31.6254 154.601 31.6533C155.303 31.6797 155.989 31.4446 156.527 30.9936C157.065 30.5427 157.416 29.9082 157.511 29.2133H158.646C158.532 30.1751 158.053 31.0566 157.308 31.6766C156.563 32.2966 155.609 32.608 154.641 32.5467C151.678 32.5467 150.437 30.2667 150.437 27.6133C150.437 25.1733 151.678 22.6933 154.641 22.6933C157.605 22.6933 158.846 25.3333 158.699 28H151.531ZM157.565 27.04C157.612 26.2073 157.327 25.3899 156.771 24.7674C156.215 24.1449 155.435 23.7681 154.601 23.72C152.719 23.72 151.731 25.3467 151.531 27.04H157.565Z" fill="#1D1D1B"/>
<path d="M160.181 22.9733H161.236V25.1467C161.484 24.4268 161.965 23.8097 162.603 23.3923C163.241 22.9748 163.999 22.7806 164.76 22.84V24C164.306 23.9656 163.85 24.0277 163.422 24.1823C162.994 24.3368 162.604 24.5803 162.277 24.8966C161.951 25.2129 161.695 25.5948 161.527 26.0171C161.359 26.4395 161.282 26.8926 161.302 27.3467V32.2667H160.181V22.9733Z" fill="#1D1D1B"/>
<path d="M171.487 25.6933C171.487 24.28 170.352 23.6533 169.044 23.6533C168.03 23.6533 166.842 24.0533 166.842 25.2533C166.842 26.2533 167.976 26.5867 168.777 26.8267L170.299 27.1733C170.991 27.1729 171.656 27.441 172.155 27.9211C172.653 28.4012 172.945 29.0557 172.969 29.7467C172.969 31.76 170.966 32.5467 169.231 32.5467C168.763 32.6144 168.286 32.5828 167.831 32.4538C167.376 32.3249 166.953 32.1015 166.59 31.7982C166.227 31.495 165.933 31.1187 165.725 30.694C165.518 30.2692 165.403 29.8056 165.387 29.3333H166.521C166.538 29.6629 166.621 29.9857 166.766 30.2825C166.91 30.5793 167.113 30.8439 167.362 31.0605C167.612 31.2771 167.902 31.4412 168.216 31.5431C168.53 31.645 168.862 31.6824 169.191 31.6533C170.286 31.6533 171.741 31.1867 171.741 29.88C171.741 28.8 170.726 28.44 169.698 28.1867L168.243 27.8667C166.762 27.4933 165.574 26.9467 165.574 25.3733C165.574 23.4933 167.429 22.7067 169.071 22.7067C169.497 22.6561 169.929 22.6957 170.339 22.823C170.749 22.9502 171.127 23.1623 171.45 23.4453C171.772 23.7283 172.031 24.0759 172.21 24.4655C172.389 24.8551 172.484 25.278 172.488 25.7067L171.487 25.6933Z" fill="#1D1D1B"/>
<path d="M173.529 22.9733H174.731L177.801 30.9067L180.671 22.9733H181.805L177.801 33.64C177.133 35.2133 176.773 35.6533 175.345 35.6533C175.058 35.6669 174.77 35.64 174.491 35.5733V34.6667C174.745 34.7248 175.004 34.756 175.265 34.76C176.266 34.76 176.506 34.16 176.88 33.2933L177.28 32.24L173.529 22.9733Z" fill="#1D1D1B"/>
<path d="M184.742 22.9733H186.638V23.92H184.742V30.2C184.742 30.9333 184.849 31.3733 185.663 31.4267C185.984 31.4267 186.304 31.4267 186.638 31.4267V32.4H185.623C184.101 32.4 183.581 31.9067 183.608 30.32V23.92H181.979V22.9733H183.608V20.1733H184.742V22.9733Z" fill="#1D1D1B"/>
<path d="M188.947 28C188.897 28.4422 188.938 28.8899 189.066 29.316C189.194 29.7421 189.408 30.1379 189.693 30.4793C189.979 30.8207 190.331 31.1008 190.728 31.3026C191.125 31.5044 191.559 31.6237 192.004 31.6533C192.699 31.6855 193.382 31.4617 193.924 31.0242C194.465 30.5868 194.827 29.9661 194.94 29.28H196.075C195.958 30.2404 195.478 31.12 194.734 31.7394C193.99 32.3588 193.037 32.6714 192.07 32.6133C189.12 32.6133 187.879 30.3333 187.879 27.68C187.879 25.24 189.12 22.76 192.07 22.76C195.02 22.76 196.222 25.3333 196.102 28H188.947ZM194.967 27.04C194.992 26.6273 194.935 26.2137 194.8 25.823C194.664 25.4323 194.453 25.0723 194.177 24.7637C193.902 24.4551 193.568 24.204 193.195 24.0248C192.822 23.8457 192.417 23.7421 192.004 23.72C190.135 23.72 189.147 25.3467 188.947 27.04H194.967Z" fill="#1D1D1B"/>
<path d="M199.439 22.9733H201.334V23.92H199.439V30.2C199.439 30.9333 199.545 31.3733 200.36 31.4267C200.68 31.4267 201.014 31.4267 201.334 31.4267V32.4H200.32C198.811 32.4 198.291 31.9067 198.304 30.32V23.92H196.676V22.9733H198.304V20.1733H199.439V22.9733Z" fill="#1D1D1B"/>
<path d="M117.533 41.0267H118.801V50.36C118.801 53.0267 117.826 54.2133 115.05 54.2133C112.273 54.2133 111.459 52.0533 111.459 49.8133H112.687C112.687 50.92 112.607 53.1733 115.157 53.1733C117.092 53.1733 117.573 52.2 117.573 49.84L117.533 41.0267Z" fill="#1D1D1B"/>
<path d="M121.03 47.44C121.15 45.2533 122.659 44.32 124.808 44.32C126.45 44.32 128.225 44.8133 128.225 47.3067V52.2533C128.212 52.3445 128.22 52.4374 128.249 52.5249C128.278 52.6123 128.326 52.692 128.391 52.7578C128.455 52.8235 128.534 52.8736 128.621 52.904C128.708 52.9344 128.801 52.9445 128.892 52.9333C129.016 52.9383 129.139 52.9155 129.253 52.8667V53.8133C129.013 53.8751 128.766 53.902 128.519 53.8933C127.371 53.8933 127.184 53.2267 127.184 52.2667C126.865 52.8782 126.374 53.3834 125.772 53.7198C125.169 54.0562 124.482 54.2092 123.793 54.16C122.058 54.16 120.67 53.32 120.67 51.4933C120.67 48.8933 123.219 48.8267 125.675 48.5067C126.61 48.4133 127.13 48.2533 127.13 47.1733C127.13 45.64 126.049 45.2667 124.701 45.2667C123.353 45.2667 122.258 45.9067 122.205 47.4267L121.03 47.44ZM127.09 48.7733C126.943 49.04 126.436 49.1333 126.129 49.1867C124.194 49.52 121.791 49.52 121.791 51.3333C121.803 51.5921 121.866 51.8459 121.978 52.0796C122.09 52.3133 122.248 52.5222 122.442 52.6938C122.636 52.8654 122.863 52.9963 123.109 53.0787C123.355 53.1611 123.615 53.1933 123.873 53.1733C124.282 53.2062 124.693 53.1551 125.081 53.0233C125.469 52.8915 125.826 52.6817 126.13 52.4069C126.434 52.1322 126.678 51.7981 126.848 51.4255C127.018 51.0528 127.109 50.6494 127.117 50.24L127.09 48.7733Z" fill="#1D1D1B"/>
<path d="M130.481 44.5867H131.615V46.2C131.869 45.6272 132.288 45.1427 132.818 44.808C133.348 44.4733 133.965 44.3034 134.592 44.32C137.262 44.32 138.009 45.6533 138.009 47.9067V53.8933H136.861V48.0933C136.861 46.5067 136.341 45.28 134.499 45.28C134.092 45.2803 133.689 45.3651 133.317 45.5289C132.945 45.6927 132.611 45.932 132.336 46.2316C132.061 46.5312 131.851 46.8846 131.721 47.2693C131.59 47.6541 131.54 48.0618 131.575 48.4667V53.8933H130.441L130.481 44.5867Z" fill="#1D1D1B"/>
<path d="M140.078 47.44C140.198 45.2533 141.707 44.32 143.856 44.32C145.498 44.32 147.273 44.8133 147.273 47.3067V52.2533C147.26 52.3445 147.268 52.4374 147.297 52.5249C147.326 52.6123 147.374 52.692 147.439 52.7578C147.503 52.8235 147.582 52.8736 147.669 52.904C147.756 52.9344 147.849 52.9445 147.941 52.9333C148.064 52.9383 148.187 52.9155 148.301 52.8667V53.8133C148.061 53.8751 147.814 53.902 147.567 53.8933C146.405 53.8933 146.232 53.2267 146.232 52.2667C145.912 52.8804 145.42 53.387 144.815 53.7236C144.209 54.0602 143.519 54.2119 142.828 54.16C141.093 54.16 139.705 53.32 139.705 51.4933C139.705 48.8933 142.254 48.8267 144.71 48.5067C145.645 48.4133 146.165 48.2533 146.165 47.1733C146.165 45.64 145.084 45.2667 143.736 45.2667C142.388 45.2667 141.293 45.9067 141.24 47.4267L140.078 47.44ZM146.139 48.7733C145.992 49.04 145.484 49.1333 145.177 49.1867C143.242 49.52 140.839 49.52 140.839 51.3333C140.851 51.5921 140.915 51.8459 141.026 52.0796C141.138 52.3133 141.296 52.5222 141.49 52.6938C141.685 52.8654 141.911 52.9963 142.157 53.0787C142.403 53.1611 142.663 53.1933 142.922 53.1733C143.33 53.2062 143.741 53.1551 144.129 53.0233C144.517 52.8915 144.874 52.6817 145.178 52.4069C145.482 52.1322 145.726 51.7981 145.896 51.4255C146.066 51.0528 146.157 50.6494 146.165 50.24L146.139 48.7733Z" fill="#1D1D1B"/>
<path d="M154.842 41.0267H156.07V48L163.558 41.08H165.227L159.46 46.4133L165.494 53.9733H163.905L158.566 47.3067L156.096 49.6V54.0133H154.842V41.0267Z" fill="#1D1D1B"/>
<path d="M174.584 49.24C174.584 51.9067 173.022 54.16 170.192 54.16C167.362 54.16 165.787 51.9067 165.787 49.24C165.787 46.5733 167.349 44.32 170.192 44.32C173.036 44.32 174.584 46.5733 174.584 49.24ZM166.922 49.24C166.922 51.2 168.017 53.24 170.192 53.24C172.368 53.24 173.449 51.2267 173.449 49.24C173.449 47.2533 172.355 45.24 170.192 45.24C168.03 45.24 166.922 47.28 166.922 49.24Z" fill="#1D1D1B"/>
<path d="M182.873 47.5067C182.79 46.8726 182.467 46.2944 181.971 45.8903C181.474 45.4863 180.842 45.2871 180.204 45.3333C178.028 45.3333 176.933 47.3333 176.933 49.3333C176.933 51.3333 178.028 53.3333 180.204 53.3333C180.901 53.3009 181.561 53.0095 182.055 52.5163C182.549 52.023 182.841 51.3634 182.873 50.6667H184.008C183.966 51.6499 183.54 52.5776 182.822 53.2506C182.103 53.9237 181.148 54.2885 180.164 54.2667C177.32 54.2667 175.759 52.0133 175.759 49.3467C175.759 46.68 177.32 44.4267 180.164 44.4267C180.621 44.3847 181.082 44.4342 181.52 44.5723C181.958 44.7104 182.365 44.9344 182.715 45.2311C183.065 45.5278 183.353 45.8912 183.561 46.3003C183.77 46.7093 183.894 47.1557 183.928 47.6133L182.873 47.5067Z" fill="#1D1D1B"/>
<path d="M185.623 41.0267H186.758V46.2C187.011 45.6272 187.43 45.1427 187.96 44.808C188.49 44.4733 189.108 44.3034 189.734 44.32C192.404 44.32 193.138 45.6533 193.138 47.9067V53.8933H192.004V48.0933C192.004 46.5067 191.483 45.28 189.641 45.28C189.234 45.2803 188.832 45.3651 188.459 45.5289C188.087 45.6927 187.753 45.932 187.478 46.2316C187.203 46.5312 186.994 46.8846 186.863 47.2693C186.732 47.6541 186.682 48.0618 186.718 48.4667V53.8933H185.583L185.623 41.0267Z" fill="#1D1D1B"/>
<path d="M195.221 47.44C195.341 45.2533 196.836 44.32 198.985 44.32C200.627 44.32 202.415 44.8133 202.415 47.3067V52.2533C202.399 52.345 202.406 52.4391 202.433 52.5279C202.461 52.6167 202.509 52.6977 202.575 52.7641C202.64 52.8305 202.72 52.8805 202.808 52.9099C202.897 52.9394 202.991 52.9474 203.083 52.9333C203.206 52.9383 203.33 52.9155 203.443 52.8667V53.8133C203.204 53.8751 202.956 53.902 202.709 53.8933C201.548 53.8933 201.374 53.2267 201.374 52.2667C201.056 52.8782 200.565 53.3834 199.962 53.7198C199.36 54.0562 198.672 54.2092 197.984 54.16C196.248 54.16 194.86 53.32 194.86 51.4933C194.86 48.8933 197.41 48.8267 199.866 48.5067C200.8 48.4133 201.321 48.2533 201.321 47.1733C201.321 45.64 200.24 45.2667 198.891 45.2667C197.543 45.2667 196.449 45.9067 196.395 47.4267L195.221 47.44ZM201.281 48.7733C201.147 49.04 200.64 49.1333 200.333 49.1867C198.397 49.52 195.995 49.52 195.995 51.3333C196.006 51.5921 196.07 51.8459 196.182 52.0796C196.294 52.3133 196.452 52.5222 196.646 52.6938C196.84 52.8654 197.067 52.9963 197.313 53.0787C197.559 53.1611 197.819 53.1933 198.077 53.1733C198.486 53.2062 198.897 53.1551 199.285 53.0233C199.673 52.8915 200.03 52.6817 200.334 52.4069C200.638 52.1322 200.882 51.7981 201.052 51.4255C201.221 51.0528 201.313 50.6494 201.321 50.24L201.281 48.7733Z" fill="#1D1D1B"/>
<path d="M204.671 44.5867H205.806V46.2C206.06 45.6272 206.478 45.1427 207.008 44.808C207.538 44.4733 208.156 44.3034 208.783 44.32C211.452 44.32 212.186 45.6533 212.186 47.9067V53.8933H211.052V48.0933C211.052 46.5067 210.531 45.28 208.689 45.28C208.282 45.2803 207.88 45.3651 207.508 45.5289C207.135 45.6927 206.801 45.932 206.526 46.2316C206.252 46.5312 206.042 46.8846 205.911 47.2693C205.78 47.6541 205.731 48.0618 205.766 48.4667V53.8933H204.631L204.671 44.5867Z" fill="#1D1D1B"/>
<path d="M222.718 49.24C222.718 51.9067 221.143 54.16 218.313 54.16C215.483 54.16 213.908 51.9067 213.908 49.24C213.908 46.5733 215.47 44.32 218.313 44.32C221.157 44.32 222.718 46.5733 222.718 49.24ZM215.043 49.24C215.043 51.2 216.138 53.24 218.313 53.24C220.489 53.24 221.57 51.2267 221.57 49.24C221.57 47.2533 220.476 45.24 218.313 45.24C216.151 45.24 215.043 47.28 215.043 49.24Z" fill="#1D1D1B"/>
<path d="M223.466 44.5867H224.681L227.057 52.5867L229.326 44.5867H230.661L232.93 52.5867L235.319 44.5867H236.521L233.531 53.92H232.262L229.98 46.0933L227.711 53.92H226.456L223.466 44.5867Z" fill="#1D1D1B"/>
<path d="M243.342 47.3067C243.322 47.0137 243.243 46.7278 243.108 46.467C242.973 46.2061 242.786 45.9758 242.558 45.7906C242.33 45.6054 242.066 45.4692 241.783 45.3905C241.5 45.3118 241.203 45.2923 240.912 45.3333C239.898 45.3333 238.71 45.72 238.71 46.9333C238.71 47.92 239.844 48.2667 240.645 48.5067L242.154 48.84C242.843 48.8558 243.501 49.1311 243.996 49.6106C244.491 50.0902 244.786 50.7388 244.823 51.4267C244.823 53.44 242.821 54.2133 241.086 54.2133C238.897 54.2133 237.455 53.2267 237.255 50.9333H238.403C238.418 51.2641 238.499 51.5883 238.643 51.8867C238.787 52.185 238.99 52.4512 239.239 52.6692C239.488 52.8872 239.779 53.0525 240.095 53.1552C240.41 53.2579 240.742 53.2958 241.072 53.2667C242.154 53.2667 243.622 52.7867 243.622 51.4933C243.622 50.4133 242.607 50.0533 241.58 49.8L240.111 49.48C238.643 49.0933 237.522 48.56 237.522 46.9867C237.522 45.0933 239.377 44.32 241.019 44.32C241.444 44.2695 241.875 44.3088 242.284 44.4353C242.693 44.5617 243.071 44.7726 243.393 45.0541C243.715 45.3357 243.974 45.6817 244.154 46.0697C244.334 46.4577 244.43 46.8792 244.436 47.3067H243.342Z" fill="#1D1D1B"/>
<path d="M246.452 41.0267H247.586V49.0933L252.739 44.5867H254.261L250.256 48.04L254.488 53.8933H253.073L249.388 48.8267L247.546 50.36V53.8933H246.412L246.452 41.0267Z" fill="#1D1D1B"/>
<path d="M255.489 41.0267H256.623V42.84H255.489V41.0267ZM255.489 44.5867H256.623V53.92H255.489V44.5867Z" fill="#1D1D1B"/>
<path d="M259.466 49.5467C259.417 49.9906 259.458 50.44 259.587 50.8678C259.716 51.2955 259.93 51.6927 260.217 52.0354C260.504 52.378 260.857 52.6591 261.256 52.8615C261.655 53.064 262.09 53.1837 262.537 53.2133C263.233 53.2447 263.916 53.0185 264.455 52.5781C264.994 52.1378 265.352 51.5141 265.46 50.8267H266.595C266.48 51.7884 266.002 52.6699 265.257 53.2899C264.512 53.9099 263.558 54.2213 262.59 54.16C259.627 54.16 258.385 51.8933 258.385 49.24C258.385 46.7867 259.627 44.32 262.59 44.32C265.553 44.32 266.781 46.9867 266.688 49.5467H259.466ZM265.5 48.5867C265.533 47.7643 265.24 46.9621 264.686 46.3534C264.131 45.7446 263.359 45.3782 262.537 45.3333C261.701 45.3941 260.919 45.7691 260.35 46.3828C259.78 46.9964 259.464 47.8031 259.466 48.64L265.5 48.5867Z" fill="#1D1D1B"/>
<path d="M276.032 53.1333C276.032 55.9333 274.911 57.6 271.894 57.6C270.038 57.6 268.183 56.76 268.036 54.7867H269.171C269.31 55.37 269.659 55.882 270.151 56.2259C270.643 56.5699 271.244 56.7219 271.84 56.6533C273.963 56.6533 274.844 55.4267 274.844 53.1333V51.88C274.594 52.4545 274.179 52.9422 273.651 53.2815C273.124 53.6208 272.508 53.7966 271.881 53.7867C268.904 53.7867 267.676 51.68 267.676 49C267.676 46.32 269.197 44.32 271.881 44.32C272.502 44.3196 273.111 44.4962 273.636 44.8292C274.161 45.1621 274.58 45.6377 274.844 46.2V44.5867H275.978L276.032 53.1333ZM274.897 49.1333C274.897 47.3067 274.07 45.28 271.894 45.28C269.718 45.28 268.837 47.2 268.837 49.1333C268.837 51.0667 269.785 52.8267 271.894 52.8267C274.003 52.8267 274.897 51.0133 274.897 49.1333Z" fill="#1D1D1B"/>
<path d="M286.524 49.24C286.524 51.9067 284.962 54.16 282.132 54.16C279.302 54.16 277.727 51.9067 277.727 49.24C277.727 46.5733 279.289 44.32 282.132 44.32C284.975 44.32 286.524 46.5733 286.524 49.24ZM278.862 49.24C278.862 51.2 279.956 53.24 282.132 53.24C284.308 53.24 285.389 51.2267 285.389 49.24C285.389 47.2533 284.295 45.24 282.132 45.24C279.97 45.24 278.862 47.28 278.862 49.24Z" fill="#1D1D1B"/>
<path d="M111.179 66.2133H112.394L114.77 74.2133L117.039 66.2133H118.374L120.656 74.2133L123.046 66.2133H124.247L121.257 75.5467H120.016L117.733 67.6933L115.464 75.5067H114.222L111.179 66.2133Z" fill="#1D1D1B"/>
<path d="M130.721 62.6667H131.949V69.5867L139.438 62.6667H141.093L135.34 68L141.36 75.5467H139.771L134.432 68.88L131.962 71.16V75.5733H130.734L130.721 62.6667Z" fill="#1D1D1B"/>
<path d="M142.201 62.6667H143.349V64.4933H142.201V62.6667ZM142.201 66.24H143.349V75.5733H142.201V66.24Z" fill="#1D1D1B"/>
<path d="M146.192 71.1733C146.142 71.6166 146.183 72.0653 146.312 72.4923C146.441 72.9192 146.656 73.3156 146.943 73.6572C147.23 73.9988 147.584 74.2786 147.982 74.4796C148.381 74.6807 148.816 74.7987 149.262 74.8267C149.954 74.8551 150.632 74.6293 151.168 74.1919C151.704 73.7545 152.062 73.136 152.172 72.4533H153.307C153.192 73.4151 152.714 74.2966 151.969 74.9166C151.224 75.5366 150.27 75.848 149.302 75.7867C146.339 75.7867 145.097 73.5067 145.097 70.8667C145.097 68.2267 146.339 65.9467 149.302 65.9467C152.265 65.9467 153.493 68.6133 153.4 71.1733H146.192ZM152.225 70.2133C152.273 69.3807 151.987 68.5632 151.432 67.9407C150.876 67.3182 150.096 66.9415 149.262 66.8933C147.38 66.8933 146.392 68.52 146.192 70.2133H152.225Z" fill="#1D1D1B"/>
<path d="M154.908 62.6667H156.043V75.5333H154.908V62.6667Z" fill="#1D1D1B"/>
<path d="M164.8 69.1333C164.723 68.4911 164.404 67.9023 163.908 67.4863C163.412 67.0702 162.776 66.8583 162.13 66.8933C159.967 66.8933 158.859 68.8933 158.859 70.8933C158.859 72.8933 159.967 74.8933 162.13 74.8933C162.827 74.8609 163.488 74.5695 163.982 74.0763C164.475 73.583 164.767 72.9234 164.8 72.2267H165.934C165.892 73.2111 165.467 74.1401 164.749 74.8153C164.03 75.4905 163.076 75.8583 162.09 75.84C159.26 75.84 157.685 73.5867 157.685 70.92C157.685 68.2533 159.26 66 162.09 66C162.548 65.958 163.01 66.0074 163.449 66.1454C163.888 66.2833 164.295 66.5071 164.646 66.8036C164.998 67.1002 165.287 67.4635 165.496 67.8727C165.706 68.2818 165.832 68.7284 165.867 69.1867L164.8 69.1333Z" fill="#1D1D1B"/>
<path d="M167.483 69.0533C167.603 66.88 169.098 65.9467 171.247 65.9467C172.889 65.9467 174.677 66.4267 174.677 68.9333V73.8667C174.677 74.32 174.891 74.56 175.345 74.56C175.469 74.5603 175.593 74.533 175.705 74.48V75.44C175.464 75.4905 175.218 75.5129 174.971 75.5067C173.81 75.5067 173.636 74.84 173.636 73.8933C173.315 74.5027 172.824 75.0059 172.222 75.3419C171.62 75.678 170.934 75.8325 170.246 75.7867C168.51 75.7867 167.122 74.9333 167.122 73.12C167.122 70.52 169.672 70.4533 172.115 70.12C173.062 70.0267 173.583 69.8667 173.583 68.8667C173.583 67.3333 172.502 66.9467 171.14 66.9467C169.779 66.9467 168.711 67.6 168.657 69.1067L167.483 69.0533ZM173.543 70.3867C173.396 70.6667 172.902 70.7467 172.595 70.8C170.66 71.1467 168.257 71.1467 168.257 72.9467C168.269 73.2054 168.332 73.4592 168.444 73.6929C168.556 73.9266 168.714 74.1355 168.908 74.3071C169.102 74.4787 169.329 74.6096 169.575 74.692C169.821 74.7744 170.081 74.8066 170.339 74.7867C170.739 74.8137 171.141 74.76 171.52 74.6288C171.899 74.4975 172.248 74.2914 172.546 74.0226C172.844 73.7539 173.084 73.4281 173.253 73.0645C173.422 72.701 173.516 72.3072 173.529 71.9067L173.543 70.3867Z" fill="#1D1D1B"/>
<path d="M183.514 69.1333C183.443 68.4885 183.126 67.8958 182.629 67.4786C182.132 67.0613 181.492 66.8517 180.844 66.8933C178.669 66.8933 177.574 68.8933 177.574 70.8933C177.574 72.8933 178.669 74.8933 180.844 74.8933C181.542 74.8609 182.202 74.5695 182.696 74.0763C183.19 73.583 183.482 72.9234 183.514 72.2267H184.649C184.607 73.2111 184.181 74.1401 183.463 74.8153C182.745 75.4905 181.79 75.8583 180.804 75.84C177.961 75.84 176.399 73.5867 176.399 70.92C176.399 68.2533 177.961 66 180.804 66C181.262 65.958 181.723 66.0075 182.161 66.1457C182.599 66.2838 183.005 66.5077 183.356 66.8044C183.706 67.1011 183.994 67.4646 184.202 67.8736C184.41 68.2826 184.535 68.729 184.569 69.1867L183.514 69.1333Z" fill="#1D1D1B"/>
<path d="M186.291 62.6667H187.425V67.84C187.679 67.2687 188.098 66.7859 188.629 66.4535C189.159 66.121 189.776 65.9538 190.402 65.9733C193.072 65.9733 193.806 67.3067 193.806 69.56V75.5333H192.671V69.7067C192.671 68.12 192.15 66.8933 190.308 66.8933C189.901 66.8955 189.498 66.982 189.126 67.1473C188.754 67.3126 188.42 67.5531 188.145 67.8538C187.87 68.1544 187.661 68.5086 187.53 68.8941C187.4 69.2795 187.35 69.6879 187.385 70.0933V75.5067H186.25L186.291 62.6667Z" fill="#1D1D1B"/>
</svg>